<svg xmlns="http://www.w3.org/2000/svg" xmlns:xlink="http://www.w3.org/1999/xlink" width="375" height="293" viewBox="0 0 375 293">
  <defs>
    <linearGradient id="linear-gradient" x1="0.5" y1="1.215" x2="0.5" gradientUnits="objectBoundingBox">
      <stop offset="0" stop-color="#c83737"/>
      <stop offset="1" stop-color="#f115b7"/>
    </linearGradient>
    <clipPath id="clip-contact">
      <rect width="375" height="293"/>
    </clipPath>
  </defs>
  <g id="contact" clip-path="url(#clip-contact)">
    <rect width="375" height="293" fill="#fff"/>
    <rect id="Rectangle_58" data-name="Rectangle 58" width="375" height="293" fill="url(#linear-gradient)"/>
    <path id="Retro-Floral-Butterfly-Silhouette" d="M718.313,64.955a15.89,15.89,0,0,0-2.593-6.1,10.729,10.729,0,0,0-5.017-3.728,15.631,15.631,0,0,0-5.3-.845c-.631,0-1.3.029-1.978.087a36.875,36.875,0,0,0-8.438,1.85,107.3,107.3,0,0,0-16.038,7.426l-.067.036c-1.5.811-3.029,1.618-4.51,2.4-1.407.742-2.862,1.508-4.286,2.277-4.6,2.5-9.867,5.5-14.211,9.527a73.448,73.448,0,0,0-5.2,5.431c-1.578,1.822-3.148,3.805-4.669,5.894a129.181,129.181,0,0,0-7.552,11.855c-2.434,4.272-4.7,8.674-6.6,12.416a25.329,25.329,0,0,1-4.183,6.124c.088-.5.194-1.005.3-1.5a15.79,15.79,0,0,0,.5-4.577,7.43,7.43,0,0,0-.89-2.894c2.123-4.193,4-8.586,5.809-12.835.737-1.729,1.5-3.516,2.268-5.265.164-.362.326-.733.482-1.091a27.193,27.193,0,0,1,1.877-3.753l.1-.16a8.6,8.6,0,0,0,1.377-3.188,2.649,2.649,0,0,0-.9-2.275l-.008-.007,0,.01a13.1,13.1,0,0,0-.506,1.26c-.1.28-.207.57-.323.85-1.632,4.222-3.557,8.4-5.42,12.438-1.117,2.423-2.272,4.929-3.351,7.418a14.955,14.955,0,0,0-.784,2.4,11.72,11.72,0,0,1-1.1,3,3.044,3.044,0,0,1-2.039,1.537,2.962,2.962,0,0,1-2.342-1.344,11.464,11.464,0,0,1-1.34-3.032,18.622,18.622,0,0,0-.717-1.928c-.761-1.661-1.545-3.322-2.284-4.88a65.515,65.515,0,0,1-2.774-6.881l-.27-.76c-1.212-3.421-2.465-6.957-4.737-9.872l0-.005-.375.164,0,.007a67.233,67.233,0,0,0,3.678,10.232c.927,2.118,1.918,4.251,2.877,6.313,1.823,3.923,3.709,7.978,5.232,12.106a3.617,3.617,0,0,1-.272.459,2.816,2.816,0,0,0-.335.611,6.308,6.308,0,0,0-.067,3.829c.045.241.1.488.15.727a6.723,6.723,0,0,1,.194,2.964,241.2,241.2,0,0,0-11.786-21.132c-1.994-3.117-4.054-6.073-6.122-8.784a104.506,104.506,0,0,0-6.907-8.18,64.582,64.582,0,0,0-8.818-8,107.39,107.39,0,0,0-13.358-8.357c-3.269-1.766-7.592-4.045-12.038-6-2.3-1.005-4.345-1.814-6.253-2.471a49.834,49.834,0,0,0-6.477-1.786,41.421,41.421,0,0,0-7.123-.734h-.1c-2.983,0-5.235.613-6.885,1.876a12.49,12.49,0,0,0-3.192,5.191,32.959,32.959,0,0,0-1.857,9.743,28.756,28.756,0,0,0,.554,7.389,15.678,15.678,0,0,0,2.573,5.045c.523.776,1.063,1.578,1.516,2.4a17.426,17.426,0,0,1,1.734,4.317,109.364,109.364,0,0,1,2.612,13.69c.507,3.453,1.031,7.024,1.807,10.486a39.063,39.063,0,0,0,1.259,4.4,19.323,19.323,0,0,0,2,4.106,11.688,11.688,0,0,0,4.166,3.781,17.728,17.728,0,0,0,3.544,1.462,30.5,30.5,0,0,0,3.747.843c2.338.376,4.632.554,6.567.679,1.1.071,2.212.132,3.291.191a98.164,98.164,0,0,1,11.639,1.106,3,3,0,0,1,.439.132c-1.543,1-3.127,1.986-4.659,2.943-2.679,1.673-5.45,3.4-8.092,5.232a55.368,55.368,0,0,0-11.8,10.422,30.2,30.2,0,0,0-2.693,3.8v0a72.121,72.121,0,0,0,.476,9.131,173.929,173.929,0,0,0,4.578,23.043l.006.025a153.525,153.525,0,0,0,5.069,17.373,43.744,43.744,0,0,0,4.391,8.782,17.864,17.864,0,0,0,4.045,4.36,15.25,15.25,0,0,0,4.93,2.7,7.966,7.966,0,0,0,2.356.321c.364,0,.74-.018,1.151-.054a18.363,18.363,0,0,0,7.022-2.392,27.681,27.681,0,0,0,7.125-5.682,61.788,61.788,0,0,0,8.353-12.008,114.645,114.645,0,0,0,5.974-12.676,112.045,112.045,0,0,0,4.122-12.157c.531-1.869,1.042-3.778,1.537-5.623.824-3.078,1.677-6.261,2.647-9.354a52.964,52.964,0,0,1,5.18-12.007,27.3,27.3,0,0,1,.51,6.842c0,.28-.005.569-.007.853-.009.632-.024,1.276-.039,1.9-.047,2.021-.1,4.111.053,6.162a13.331,13.331,0,0,0,.849,4.113,3.927,3.927,0,0,0,1.864,2.075,3.815,3.815,0,0,0,1.6.334,4.736,4.736,0,0,0,1.753-.347,4.176,4.176,0,0,0,2.122-2.57,16.153,16.153,0,0,0,.619-4.76c.02-1.405-.03-2.833-.079-4.214-.054-1.538-.109-3.128-.069-4.693a14.562,14.562,0,0,1,1.045-5.729c2.277,5.443,4.142,11.147,5.946,16.663l.069.212c.292.9.587,1.819.873,2.706,1.687,5.232,3.431,10.642,5.327,15.9a127.533,127.533,0,0,0,7.919,18.1,61.754,61.754,0,0,0,4.187,6.58,40.324,40.324,0,0,0,5.168,5.83,24.658,24.658,0,0,0,6.39,4.187,19.7,19.7,0,0,0,6.1,1.751,11.213,11.213,0,0,0,1.212.067,9.047,9.047,0,0,0,3.493-.661,13.99,13.99,0,0,0,5.548-4.417,33.343,33.343,0,0,0,3.725-5.928A84.862,84.862,0,0,0,691,195.6c1.676-5.425,2.848-9.634,3.8-13.649a143.582,143.582,0,0,0,3.833-28.483v0a40.2,40.2,0,0,0-4.1-5.5,53.168,53.168,0,0,0-11.44-9.653c-1.077-.669-2.194-1.32-3.274-1.95a49.933,49.933,0,0,1-8.525-5.793c1.9-.131,3.835-.213,5.706-.293,1.318-.056,2.68-.114,4.02-.189a86.2,86.2,0,0,0,14.324-1.626,19.37,19.37,0,0,0,7.088-2.929,11.938,11.938,0,0,0,3.632-5.143,47.253,47.253,0,0,0,2.346-8.006c.108-.511.22-1.031.328-1.534.315-1.464.64-2.977.922-4.473.339-1.865.605-3.774.862-5.619.142-1.024.29-2.082.448-3.121.668-4.338,1.427-8.547,3.341-12.34.386-.779.8-1.56,1.208-2.314a41.806,41.806,0,0,0,2.21-4.561,17.149,17.149,0,0,0,1.237-6.009A33.2,33.2,0,0,0,718.313,64.955Z" transform="translate(-437.342 -22.728)" opacity="0.05"/>
  </g>
</svg>
