<svg xmlns="http://www.w3.org/2000/svg" xmlns:xlink="http://www.w3.org/1999/xlink" width="1157" height="1157" viewBox="0 0 1157 1157">
  <defs>
    <radialGradient id="radial-gradient" cx="0.5" cy="0.5" r="0.476" gradientTransform="matrix(0.617, -0.787, 0.787, 0.617, -0.202, 0.585)" gradientUnits="objectBoundingBox">
      <stop offset="0" stop-color="#fff" stop-opacity="0"/>
      <stop offset="0.022" stop-color="#4b4b4b" stop-opacity="0.706"/>
      <stop offset="1"/>
    </radialGradient>
    <linearGradient id="linear-gradient" x1="0.5" x2="0.5" y2="1" gradientUnits="objectBoundingBox">
      <stop offset="0" stop-color="#c83737"/>
      <stop offset="1" stop-color="#f115b7"/>
    </linearGradient>
    <clipPath id="clip-favicon">
      <rect width="1157" height="1157"/>
    </clipPath>
  </defs>
  <g id="favicon" clip-path="url(#clip-favicon)">
    <rect id="Rectangle_2" data-name="Rectangle 2" width="1155" height="1155" rx="577.5" transform="translate(0 0)" opacity="0.53" fill="url(#radial-gradient)"/>
    <rect id="Rectangle_1" data-name="Rectangle 1" width="1157" height="1155" rx="577.5" opacity="0.79" fill="url(#linear-gradient)"/>
    <path id="Retro-Floral-Butterfly-Silhouette" d="M1261.63,95.991c-2.042-9.443-5.443-17.445-10.1-23.784a41.806,41.806,0,0,0-19.546-14.526,60.9,60.9,0,0,0-20.662-3.294c-2.459,0-5.053.114-7.709.338a143.674,143.674,0,0,0-32.878,7.21c-21.832,7.31-42.5,18.3-62.489,28.932l-.261.139c-5.835,3.159-11.8,6.3-17.572,9.343-5.483,2.89-11.154,5.877-16.7,8.872-17.914,9.726-38.445,21.418-55.37,37.119A286.188,286.188,0,0,0,998.084,167.5c-6.148,7.1-12.268,14.825-18.191,22.966a503.275,503.275,0,0,0-29.423,46.19c-9.486,16.645-18.331,33.8-25.733,48.376-4.138,7.788-9.152,16.692-16.3,23.86.342-1.943.756-3.918,1.156-5.828,1.214-5.8,2.469-11.8,1.946-17.834a28.941,28.941,0,0,0-3.469-11.277c8.271-16.335,15.573-33.453,22.634-50.008,2.873-6.735,5.844-13.7,8.839-20.513.637-1.41,1.268-2.854,1.878-4.25a105.867,105.867,0,0,1,7.312-14.623l.375-.623c2.331-3.87,4.743-7.872,5.364-12.423a10.321,10.321,0,0,0-3.492-8.863l-.032-.029-.019.039a51.217,51.217,0,0,0-1.973,4.91c-.395,1.092-.8,2.221-1.256,3.311-6.357,16.449-13.86,32.724-21.116,48.463-4.352,9.441-8.853,19.2-13.058,28.9a58.24,58.24,0,0,0-3.054,9.352c-1.053,3.969-2.141,8.073-4.282,11.7-1.97,3.3-4.867,5.488-7.943,5.988a11.542,11.542,0,0,1-9.124-5.236c-2.5-3.587-3.885-7.77-5.222-11.814a72.822,72.822,0,0,0-2.793-7.511c-2.965-6.473-6.022-12.943-8.9-19.015A255.166,255.166,0,0,1,861.4,204.9q-.527-1.477-1.051-2.96c-4.723-13.327-9.606-27.108-18.456-38.462l-.015-.02-1.462.638.007.026c3.549,14.123,8.986,27.507,14.331,39.867,3.612,8.252,7.475,16.562,11.21,24.6,7.1,15.283,14.45,31.086,20.387,47.169a14.178,14.178,0,0,1-1.061,1.787,10.967,10.967,0,0,0-1.306,2.38c-2.025,4.651-1.323,9.92-.261,14.92.176.939.384,1.9.585,2.833.818,3.788,1.664,7.7.756,11.55-13.622-26.831-28.613-55.373-45.921-82.337-7.77-12.146-15.8-23.661-23.852-34.227a407.171,407.171,0,0,0-26.911-31.872,251.635,251.635,0,0,0-34.359-31.166c-14.2-10.644-30.253-20.686-52.045-32.56-12.738-6.882-29.581-15.759-46.9-23.379-8.959-3.917-16.929-7.066-24.363-9.626a194.175,194.175,0,0,0-25.236-6.96,161.4,161.4,0,0,0-27.754-2.859h-.374c-11.622,0-20.4,2.39-26.826,7.308-6.318,5.483-9.832,13.3-12.437,20.225a128.4,128.4,0,0,0-7.235,37.96,112.012,112.012,0,0,0,2.161,28.789c1.723,7.331,5.944,13.6,10.026,19.655,2.036,3.022,4.141,6.147,5.908,9.363A67.865,67.865,0,0,1,555.7,194.36c4.911,17.48,7.588,35.709,10.177,53.338,1.976,13.454,4.019,27.366,7.042,40.856a152.128,152.128,0,0,0,4.9,17.153,75.276,75.276,0,0,0,7.8,16,45.547,45.547,0,0,0,16.233,14.73,69.069,69.069,0,0,0,13.81,5.7,118.8,118.8,0,0,0,14.6,3.284c9.109,1.464,18.046,2.159,25.586,2.646,4.27.275,8.617.513,12.821.744,14.928.819,30.364,1.666,45.349,4.308a11.707,11.707,0,0,1,1.709.514c-6.012,3.884-12.184,7.739-18.153,11.466-10.44,6.518-21.234,13.258-31.528,20.386-20.039,13.825-34.649,26.728-45.977,40.607a117.7,117.7,0,0,0-10.492,14.823l0,.015a281.069,281.069,0,0,0,1.855,35.577c3.246,29.638,10,58.195,17.837,89.781l.024.1c5.6,22.458,11.391,45.68,19.749,67.689,5.365,13.922,10.8,24.795,17.109,34.216a69.61,69.61,0,0,0,15.759,16.986c6.784,5.246,13.066,8.681,19.207,10.5a31.039,31.039,0,0,0,9.181,1.249c1.416,0,2.883-.069,4.483-.21,8.792-.923,18-4.059,27.358-9.319a107.859,107.859,0,0,0,27.76-22.137c11.382-12.432,21.723-27.3,32.544-46.785a446.6,446.6,0,0,0,23.274-49.39,436.652,436.652,0,0,0,16.061-47.366c2.07-7.282,4.061-14.718,5.988-21.91,3.211-11.993,6.532-24.395,10.315-36.445,4.644-14.579,10.673-31.535,20.183-46.784,2.16,8.7,2.071,17.829,1.986,26.658-.011,1.09-.021,2.217-.028,3.323-.035,2.463-.093,4.97-.15,7.394-.184,7.874-.374,16.016.207,24.009.391,4.964,1.089,10.75,3.308,16.026a15.3,15.3,0,0,0,7.261,8.083,14.871,14.871,0,0,0,6.224,1.3,18.447,18.447,0,0,0,6.83-1.351c5.041-2.2,7.343-7.221,8.266-10.015,2.028-6.121,2.309-12.782,2.414-18.545.076-5.476-.118-11.039-.307-16.419-.209-5.992-.426-12.187-.269-18.284.264-7.481.8-15.365,4.07-22.323,8.871,21.208,16.14,43.432,23.168,64.924l.27.827c1.137,3.513,2.289,7.087,3.4,10.543,6.571,20.384,13.366,41.462,20.753,61.951,7.193,19.84,17.2,45.784,30.855,70.507a240.575,240.575,0,0,0,16.315,25.637,157.07,157.07,0,0,0,20.135,22.716,96.075,96.075,0,0,0,24.9,16.312,76.745,76.745,0,0,0,23.767,6.824,43.668,43.668,0,0,0,4.721.261,35.244,35.244,0,0,0,13.607-2.574c7.655-3.077,14.726-8.706,21.618-17.208a129.936,129.936,0,0,0,14.513-23.1c8.439-16.759,14.392-34.246,19.1-49.143,6.531-21.137,11.1-37.538,14.8-53.179a559.44,559.44,0,0,0,14.933-110.976v-.01l-.005-.008a156.693,156.693,0,0,0-15.973-21.425,207.16,207.16,0,0,0-44.574-37.611c-4.2-2.607-8.547-5.144-12.756-7.6-11.415-6.653-23.216-13.532-33.214-22.572,7.4-.51,14.941-.831,22.232-1.141,5.134-.218,10.443-.445,15.661-.735,20.056-1.1,38.1-2.344,55.81-6.336,8.918-2.138,19.174-5.166,27.616-11.413,5.691-4.288,10.188-10.656,14.152-20.039,4.215-10.042,6.727-20.485,9.14-31.193.422-1.992.857-4.017,1.278-5.975,1.225-5.7,2.493-11.6,3.592-17.427,1.322-7.267,2.358-14.7,3.36-21.895.555-3.989,1.13-8.114,1.747-12.162,2.6-16.9,5.559-33.3,13.018-48.081,1.5-3.036,3.131-6.077,4.706-9.017a162.925,162.925,0,0,0,8.609-17.771,66.822,66.822,0,0,0,4.819-23.413A129.347,129.347,0,0,0,1261.63,95.991Z" transform="translate(-318.944 240.864)" fill="#fff"/>
  </g>
</svg>
