<svg xmlns="http://www.w3.org/2000/svg" xmlns:xlink="http://www.w3.org/1999/xlink" width="1157" height="1157" viewBox="0 0 1157 1157">
  <defs>
    <radialGradient id="radial-gradient" cx="0.5" cy="0.5" r="0.476" gradientTransform="matrix(0.617, -0.787, 0.787, 0.617, -0.202, 0.585)" gradientUnits="objectBoundingBox">
      <stop offset="0" stop-color="#fff" stop-opacity="0"/>
      <stop offset="0.022" stop-color="#4b4b4b" stop-opacity="0.706"/>
      <stop offset="1"/>
    </radialGradient>
    <linearGradient id="linear-gradient" x1="0.5" x2="0.5" y2="1" gradientUnits="objectBoundingBox">
      <stop offset="0" stop-color="#c83737"/>
      <stop offset="1" stop-color="#f115b7"/>
    </linearGradient>
    <clipPath id="clip-YSJ_Logo">
      <rect width="1157" height="1157"/>
    </clipPath>
  </defs>
  <g id="YSJ_Logo" data-name="YSJ Logo" clip-path="url(#clip-YSJ_Logo)">
    <path id="Retro-Floral-Butterfly-Silhouette" d="M1175.907,91.094c-1.8-8.336-4.8-15.4-8.919-20.994a36.9,36.9,0,0,0-17.253-12.823A53.759,53.759,0,0,0,1131.5,54.37c-2.171,0-4.46.1-6.8.3a126.825,126.825,0,0,0-29.022,6.364c-19.271,6.453-37.516,16.155-55.16,25.539l-.23.122c-5.151,2.788-10.418,5.564-15.511,8.247-4.84,2.551-9.845,5.188-14.742,7.832-15.813,8.586-33.936,18.906-48.876,32.765a252.62,252.62,0,0,0-17.88,18.677c-5.427,6.266-10.829,13.087-16.057,20.273A444.258,444.258,0,0,0,901.24,215.26c-8.373,14.693-16.181,29.832-22.715,42.7-3.653,6.874-8.078,14.735-14.386,21.061.3-1.715.667-3.458,1.02-5.144,1.072-5.119,2.18-10.412,1.717-15.743a25.548,25.548,0,0,0-3.062-9.955c7.3-14.419,13.746-29.53,19.979-44.143,2.536-5.945,5.159-12.092,7.8-18.107.562-1.245,1.12-2.519,1.658-3.752a93.451,93.451,0,0,1,6.455-12.908l.331-.55c2.058-3.416,4.186-6.948,4.735-10.966a9.111,9.111,0,0,0-3.083-7.824l-.028-.026-.016.034a45.208,45.208,0,0,0-1.742,4.334c-.348.964-.71,1.961-1.109,2.923-5.612,14.519-12.234,28.886-18.64,42.779-3.842,8.334-7.814,16.951-11.526,25.511a51.416,51.416,0,0,0-2.7,8.255,40.32,40.32,0,0,1-3.78,10.33,10.467,10.467,0,0,1-7.012,5.286,10.188,10.188,0,0,1-8.054-4.622c-2.209-3.166-3.43-6.858-4.609-10.429a64.3,64.3,0,0,0-2.466-6.63c-2.617-5.714-5.316-11.425-7.855-16.785a225.256,225.256,0,0,1-9.542-23.665q-.465-1.3-.928-2.613c-4.169-11.764-8.479-23.928-16.291-33.951l-.013-.017-1.29.563.006.023c3.133,12.466,7.932,24.281,12.651,35.191,3.189,7.284,6.6,14.619,9.9,21.713,6.271,13.491,12.755,27.44,18,41.637a12.512,12.512,0,0,1-.937,1.577,9.678,9.678,0,0,0-1.153,2.1c-1.788,4.105-1.168,8.756-.231,13.17.155.829.339,1.679.516,2.5.722,3.344,1.468,6.8.667,10.2-12.024-23.684-25.257-48.879-40.535-72.68-6.859-10.721-13.943-20.886-21.055-30.212a359.424,359.424,0,0,0-23.755-28.134,222.123,222.123,0,0,0-30.329-27.511c-12.537-9.4-26.7-18.26-45.941-28.741-11.244-6.075-26.112-13.911-41.4-20.637-7.908-3.458-14.943-6.238-21.506-8.5a171.4,171.4,0,0,0-22.277-6.144,142.474,142.474,0,0,0-24.5-2.524h-.331c-10.259,0-18,2.11-23.68,6.451-5.577,4.84-8.679,11.741-10.978,17.853a113.335,113.335,0,0,0-6.386,33.508,98.875,98.875,0,0,0,1.907,25.413c1.521,6.471,5.247,12,8.85,17.35,1.8,2.668,3.655,5.426,5.215,8.265a59.9,59.9,0,0,1,5.966,14.848c4.335,15.429,6.7,31.521,8.984,47.082,1.744,11.876,3.548,24.157,6.216,36.064a134.288,134.288,0,0,0,4.329,15.141,66.453,66.453,0,0,0,6.883,14.122,40.205,40.205,0,0,0,14.329,13,60.968,60.968,0,0,0,12.19,5.03,104.886,104.886,0,0,0,12.887,2.9c8.041,1.293,15.93,1.906,22.585,2.336,3.769.243,7.606.453,11.318.657,13.177.723,26.8,1.47,40.03,3.8a10.334,10.334,0,0,1,1.509.454c-5.307,3.429-10.755,6.831-16.024,10.121-9.215,5.754-18.744,11.7-27.83,17.995-17.689,12.2-30.585,23.593-40.584,35.845a103.892,103.892,0,0,0-9.261,13.084l0,.013a248.094,248.094,0,0,0,1.637,31.4c2.865,26.162,8.826,51.37,15.745,79.251l.021.085c4.944,19.824,10.055,40.322,17.433,59.75,4.736,12.29,9.534,21.887,15.1,30.2a61.448,61.448,0,0,0,13.911,14.994c5.988,4.631,11.534,7.663,16.954,9.271a27.4,27.4,0,0,0,8.1,1.1c1.25,0,2.545-.061,3.957-.186,7.761-.815,15.886-3.583,24.149-8.226a95.209,95.209,0,0,0,24.5-19.541c10.047-10.974,19.176-24.1,28.727-41.3a394.2,394.2,0,0,0,20.544-43.6,385.418,385.418,0,0,0,14.177-41.81c1.827-6.428,3.585-12.992,5.286-19.34,2.835-10.587,5.766-21.533,9.1-32.171,4.1-12.869,9.421-27.837,17.816-41.3,1.907,7.68,1.828,15.738,1.753,23.531-.01.962-.019,1.957-.025,2.933-.031,2.174-.082,4.387-.132,6.526-.162,6.951-.33,14.138.183,21.194.345,4.382.961,9.49,2.92,14.146a13.509,13.509,0,0,0,6.409,7.135,13.127,13.127,0,0,0,5.494,1.147,16.283,16.283,0,0,0,6.029-1.193c4.45-1.945,6.482-6.374,7.3-8.841,1.79-5.4,2.038-11.283,2.13-16.37.067-4.834-.1-9.744-.271-14.494-.185-5.289-.376-10.758-.237-16.14.233-6.6.7-13.563,3.593-19.7,7.831,18.721,14.247,38.338,20.451,57.309l.239.73c1,3.1,2.02,6.256,3,9.306,5.8,17.994,11.8,36.6,18.319,54.685,6.35,17.513,15.184,40.414,27.236,62.238a212.347,212.347,0,0,0,14.4,22.631,138.65,138.65,0,0,0,17.774,20.052,84.807,84.807,0,0,0,21.977,14.4,67.742,67.742,0,0,0,20.979,6.024,38.562,38.562,0,0,0,4.168.23,31.112,31.112,0,0,0,12.012-2.272c6.757-2.717,13-7.685,19.082-15.19a114.69,114.69,0,0,0,12.811-20.387c7.449-14.793,12.7-30.23,16.861-43.379,5.766-18.658,9.8-33.136,13.067-46.942a493.827,493.827,0,0,0,13.182-97.96V395.5l0-.007a138.309,138.309,0,0,0-14.1-18.912,182.856,182.856,0,0,0-39.347-33.2c-3.7-2.3-7.545-4.54-11.26-6.706-10.076-5.873-20.493-11.945-29.319-19.924,6.535-.45,13.189-.733,19.625-1.007,4.532-.193,9.218-.392,13.824-.649,17.7-.975,33.63-2.069,49.264-5.593,7.872-1.887,16.925-4.56,24.377-10.074,5.024-3.785,8.993-9.406,12.492-17.689,3.72-8.864,5.938-18.082,8.068-27.534.373-1.759.756-3.546,1.128-5.274,1.082-5.034,2.2-10.238,3.171-15.383,1.167-6.414,2.082-12.979,2.966-19.327.49-3.521,1-7.162,1.542-10.735,2.3-14.921,4.907-29.394,11.491-42.442,1.326-2.68,2.764-5.364,4.154-7.959a143.835,143.835,0,0,0,7.6-15.686,58.983,58.983,0,0,0,4.253-20.667A114.188,114.188,0,0,0,1175.907,91.094Z" transform="translate(-280.813 287.407)" opacity="0.56"/>
    <rect id="Rectangle_2" data-name="Rectangle 2" width="896" height="896" rx="448" transform="translate(129 131)" opacity="0.88" fill="url(#radial-gradient)"/>
    <rect id="Rectangle_1" data-name="Rectangle 1" width="898" height="896" rx="448" transform="translate(129 130)" opacity="0.76" fill="url(#linear-gradient)"/>
    <path id="Path_3" data-name="Path 3" d="M225.966,86.749q-1.167,23.926-8.17,66.527t-8.17,48.436q1.167-4.085,2.334-4.669l1.751,2.334q1.167,6.419-2.918,6.419-1.751-2.334,0,.584,4.085,5.836.584,4.085,1.167.584.584,2.918a11.293,11.293,0,0,1-1.167,3.21q-.584.875-2.626,3.793t-3.21,4.669q0,1.167,2.334-1.167t2.918,2.918a1.631,1.631,0,0,0-1.167,2.334h.584q1.751-.584,1.751,0t-2.334,2.918q-1.167,0-2.334,4.669,0,1.751.584,1.751a1.681,1.681,0,0,0,1.167-.584h1.167a17.139,17.139,0,0,1-1.459,3.793,32.14,32.14,0,0,0-1.751,4.377q-.292,1.167-.875,5.252a11,11,0,0,0,.584,6.419q-5.836,2.918-1.751,12.839a6.789,6.789,0,0,1-1.751,1.167q1.167,1.751,0,5.836-1.167.584-1.167,0,1.167-2.334,0-3.5a20.314,20.314,0,0,0-1.167,4.96q-.584,3.793-1.167,3.793,4.669,9.921-2.918,30.929,0,14.006-3.5,41.434-1.167.584,0,2.334t.584,2.918q-1.167.584-.584,1.167-2.334,2.918-1.751,7.878a26.578,26.578,0,0,1-.584,9.629q1.751-.584,0,4.085-1.167,5.252-2.334,2.918,2.334,1.751.875,11.963t-.292,14.881q-2.334,15.756-4.085,67.694,1.167,0,.584,6.419a70.757,70.757,0,0,0,0,12.839q.584,9.921.292,18.966t.875,10.213l-1.167,1.751.584,2.334q1.167,1.167.584,1.751t0,2.918q4.669,44.935,7,56.023a9.579,9.579,0,0,1,1.459,2.918q.875,2.334,1.751,4.96A52.869,52.869,0,0,1,197.955,607l.584,2.626q1.167-1.751,2.918,2.918,4.085,9.921-1.167,9.337.584,1.751-1.167,3.5a4.85,4.85,0,0,1-4.669,1.167,15.431,15.431,0,0,1-6.711-4.96,59.011,59.011,0,0,1-7-11.38q-3.793-7.587-4.377-8.17v-.583q1.167-1.167.584-1.167-1.751-2.334-2.626-8.462t-2.626-8.462a39.561,39.561,0,0,0-.875-5.544l-1.751-8.754a42.312,42.312,0,0,0-2.042-7.295q.584-1.751-1.167-11.088.584-3.5-.292-21.3t-.292-23.051q-1.167-1.751-.292-6.128t-.875-6.711l.875-2.626a4.671,4.671,0,0,0,0-2.334q-.292-1.459-.584-2.626t-1.167-4.377q-.875-3.21-1.459-6.127a3.759,3.759,0,0,0,0-2.918q-.584-1.751.584-7.586l1.751,7,.584,4.085.584-1.751q-.584-5.252-1.167-8.754t-.875-3.5q-.292,0,.875-2.334-1.751,1.751-2.334-1.751-.584-5.836,1.751-6.419-3.5,0-2.334-4.085a1.681,1.681,0,0,1,.584-1.167l.584,1.751-.584,1.751q.584,1.167,1.167-.584,2.918-8.17-2.334-11.088,2.918-2.334,2.918-3.5a25,25,0,0,0-1.751-5.836v-1.751h1.167a17.147,17.147,0,0,1,.584,4.085l1.167-18.091-.584-.584q-2.334.584-1.167-2.918a16.254,16.254,0,0,0,1.167-3.5h0a5.179,5.179,0,0,1-.584-2.334v-1.751l.584-1.751v.584l.584,1.167q.584,2.334.584.584l-2.334-8.754q1.751-1.167,2.918,2.334a18.02,18.02,0,0,0,.292-8.462q-.875-3.793-.292-4.96,2.334-1.167.292-4.377a6.481,6.481,0,0,1-.875-6.128q1.167,0,.584-3.793t2.334-4.377l.584-14.589h-1.167q2.334-4.669,1.751-7-1.167-4.085.584-9.921a1.681,1.681,0,0,0,.584,1.167q-1.167-3.5.584-4.669t.584-4.085a4.525,4.525,0,0,1,1.167-5.252q-2.334.584-1.751-5.252.584-2.334,1.751-.584,1.167.584,1.167,0t-1.167-1.751q-2.334-.584-.292-2.918t.875-4.085l-1.167-5.836q1.751-1.167,2.918-7a27.064,27.064,0,0,0,.584-9.337q4.085-6.419.584-5.836-3.5,0-8.17,4.085.584,1.167,1.167,1.167a4.478,4.478,0,0,1,1.751.584q1.167,2.918-2.918,7.586-3.5,4.085-3.5-1.751-1.167,0-1.751,3.5,0,1.167,2.918.584t2.918,0a6.69,6.69,0,0,0,.584,2.042q.584,1.459,0,1.459l-1.751-1.751q-.584.584,1.751,3.5.584,1.751-.584,1.751h-1.167a3.76,3.76,0,0,0-2.918,0q-2.918.584-.584,1.751,1.167.584,4.085,0,.584,0-1.167.584-1.167.584,0,1.751a6.07,6.07,0,0,1-.292,4.085q-.875,2.334-2.334,5.544a14.81,14.81,0,0,0-1.459,6.128q1.751.584,0,1.751a4.479,4.479,0,0,0-1.751.584v.584q-1.167,1.751-.584,2.334,1.167-.583,1.167.292t-.584.875a159.5,159.5,0,0,1-8.754,27.428q-2.918,2.334-.584,3.793a6.386,6.386,0,0,1,2.918,4.377l-.584,1.751q-5.252,7.586-6.419,8.17.584-1.167,1.751-4.085,2.918-7.586-1.167-7.586l.584.584.584,1.167-2.042,2.918a13.8,13.8,0,0,0-2.334,4.377,20,20,0,0,0-.292,3.793l-.584.584q-1.751,1.167-1.751.584,0,1.751-2.334,3.5a16.253,16.253,0,0,1-1.167,3.5,14.335,14.335,0,0,0-1.167,5.252q-1.167-1.167-3.5,1.167-1.751,1.751,1.167,2.334h-1.751a3.363,3.363,0,0,0-1.167,2.334q0,3.5,2.918-1.167l1.167-1.751q1.167,0,3.21-3.793t4.377-7.295q2.334-3.5,4.669-3.5.584.584-.584,1.167-1.167,1.167-3.5,6.419Q130.844,407.13,104.583,411.8a32.7,32.7,0,0,0-7.295-2.626q-3.793-.875-9.337-1.751t-9.045-1.459a8.958,8.958,0,0,1-3.5-1.167q-2.918,2.918-9.045-5.836A68.765,68.765,0,0,1,57.9,383.787a41.257,41.257,0,0,1-7.295-10.5,125.193,125.193,0,0,1-4.669-13.422q-2.626-8.754-4.96-15.756.584-.584.292-2.626a16.147,16.147,0,0,0-1.167-4.085,24.876,24.876,0,0,1-1.459-5.252,13.232,13.232,0,0,1,0-5.544,257.053,257.053,0,0,1-4.377-26.844q-1.459-13.422-2.626-30.929T30.47,246.064q0-5.836-.292-30.929t.875-32.68q2.334-40.85,6.419-68.861.584,0,0-.584,0-4.669,4.669-31.513l1.751-7q-.584-1.751,1.167-3.5,5.252-9.921,11.088-8.754l.584.584V63.99l3.5,1.751.584.584q0,.584,2.334.875a16.133,16.133,0,0,1,4.377,1.167,39.976,39.976,0,0,1,4.085,2.042,3.384,3.384,0,0,1,2.043,2.918l.584,7.586.584-.584q3.5-13.422,5.836-1.751,1.167,5.252.584,7Q77.155,96.086,79.49,99v.584l-.584,1.167q-2.918,6.419-2.918,19.841a8.273,8.273,0,0,1,0,4.377q-.584,2.626-1.751,6.419a21.994,21.994,0,0,0-1.167,6.128.729.729,0,0,0,0,1.167q-1.167,5.252.584,8.17a1.032,1.032,0,0,1-1.167,1.167q-.584.584,0,2.918a4.909,4.909,0,0,1-.584,4.085q-1.167.584-.292,2.626t-.292,2.626l-1.751,1.459q-1.751,1.459.584,2.043,1.167,1.167.292,3.793t.875,3.793Q68.985,173.7,68.4,191.209q-1.167,4.085-1.167,14.006a104.84,104.84,0,0,1-1.167,16.924q.584,12.255-.292,42.017t.875,42.6q-1.167,1.751-.584,5.836t1.167,8.462l.584,4.377,1.167.584-.584.584a4.479,4.479,0,0,0-.584,1.751,17.544,17.544,0,0,0,.584,2.918,17.147,17.147,0,0,1,.584,4.085,8.335,8.335,0,0,1,.292,5.836,4.328,4.328,0,0,0,2.042,5.252q-.584,8.754,9.337,32.68l-.584,1.167a12.949,12.949,0,0,1,3.793,4.669q1.459,2.918,2.334,4.377a2.647,2.647,0,0,0,2.918,1.167q2.042-.292,6.127-3.793,6.419-7,14.3-23.926t10.8-22.176q.584-1.167,14.006-33.264,1.751-5.252,4.669-13.13t4.085-10.8h1.167q0-.584-1.167-.584,4.085-11.088,7.586-22.759,0-2.334,2.626-11.963t3.21-13.13q12.255-47.269,15.756-64.193v-1.751a9.143,9.143,0,0,0-2.334-1.751v2.042a14.845,14.845,0,0,0,.292,2.918,5.964,5.964,0,0,1,0,2.626q-.292,1.167-.875,1.167l-1.167-2.334q1.167-8.754,5.252-9.337l-1.167,2.334q4.085-2.918,4.085-9.921a4.756,4.756,0,0,0-1.167-3.5,2.378,2.378,0,0,0,1.751-.584,6.262,6.262,0,0,0,1.167-2.042,8.568,8.568,0,0,0,.584-3.21,25.1,25.1,0,0,1,.584-4.669l1.167-5.836q1.167-1.167,2.626-6.127t2.918-11.38q1.459-6.419,2.042-8.754,1.751-2.334,3.5-9.337a112.42,112.42,0,0,1,4.377-13.714,25.269,25.269,0,0,1,6.711-10.212q4.669-5.252,9.921-2.918a31.912,31.912,0,0,1,9.629,6.711Q226.55,85.582,225.966,86.749Zm-25.094,65.944v-.584l-1.751-.584A1.869,1.869,0,0,0,200.873,152.693Zm3.5,77.615q1.167-.584,1.167,0a2.378,2.378,0,0,0,.584-1.751h-1.167Zm-1.751,5.252h2.334Q203.207,234.393,202.623,235.56Zm2.334,19.841-.584,1.167h1.751A1.032,1.032,0,0,0,204.958,255.4Zm-3.5-17.507a1.681,1.681,0,0,0-.584,1.167q0,1.751,1.751,1.167l1.167-1.167Q203.791,237.894,201.456,237.894Zm0,11.088q-.584-1.167-.875-.875t.292,1.459q.584,1.167.875.875T201.456,248.982Zm-.584,3.5a6.335,6.335,0,0,0-1.167-2.334q-1.167,0-1.167.584v2.334A3.379,3.379,0,0,0,200.873,252.484Zm-2.918,2.918.584.584q0,.584.584.292a4.573,4.573,0,0,0,1.167-.875l-1.167-1.167Zm-2.334,19.841a2.352,2.352,0,0,0,1.167-2.334,2.378,2.378,0,0,0-.584-1.751q-.584,0-1.167,1.167Zm2.334,25.094-.584-1.167ZM196.2,278.161a4.479,4.479,0,0,0-.584-1.751h-.584q-.584,0-.584,2.334l1.167,1.167Zm-2.918,4.085v2.334q-1.751.584-.584,2.918.584,2.918,1.751,1.751l.584-4.669A9.144,9.144,0,0,1,193.286,282.246Zm-.584,14.006q-1.167-1.751-1.751.584a9.6,9.6,0,0,0,.584,2.918Q192.7,299.169,192.7,296.252Zm-2.334,5.252q.584-.584-.584,2.918-1.751,10.5,0,11.088l1.167-.584q-.584-1.167.292-5.836a20.611,20.611,0,0,0,.292-7.586A.729.729,0,0,0,190.368,301.5ZM188.034,323.1l-1.167,11.671q0,.584,1.167-1.751l.584-4.085v-8.17A9.55,9.55,0,0,1,188.034,323.1ZM185.7,348.773l-.584.584Zm0,5.252-2.334-2.334q-.584,0,1.167,2.334.584,1.751,0,1.751Q185.116,355.776,185.7,354.025Zm-1.167,5.252v.584Q185.116,359.277,184.533,359.277Zm-.584,8.754-.584-.584a2.378,2.378,0,0,0-.584,1.751q.584,1.167.584.584Zm-.584,4.085q0-1.167-.875-.584T182.2,372.7q.584,1.167.875.875A2.309,2.309,0,0,0,183.366,372.116ZM182.2,387.289a.516.516,0,0,0-.584-.584Zm-2.334,18.091.584.584q1.167-.584.584-1.167T179.864,405.379Zm8.17,193.746q0-.584-1.167-1.167Zm-4.085-46.686q-.584-1.751-1.167-.584l.584,1.751Zm1.751,42.6h0l-.584.583Zm-1.167-4.085H182.2l2.334,1.167Q185.116,592.122,184.533,590.955Zm.584,16.34v-.584l-1.167,1.167Zm-1.167-11.088h-1.167v.584Zm-5.252-2.918.584,2.334a30.53,30.53,0,0,0,1.751,4.96,8.582,8.582,0,0,0,2.918,3.793l-1.751-6.419q-.584,0-1.167-2.042A11.111,11.111,0,0,0,179.864,593Q179.281,592.122,178.7,593.289Zm0-17.507-.584-.584v1.751Zm-9.921-65.944a132.828,132.828,0,0,1,.584,14.006q0,8.754.292,12.839t.875,10.8q.584,6.711,1.167,11.671t2.043,11.671q1.459,6.711,3.21,14.3l2.334,2.918a3.217,3.217,0,0,0-.292-2.918,9.025,9.025,0,0,1-.875-4.085,1.189,1.189,0,0,1,.875.292,2.308,2.308,0,0,1,.292,1.459h.584l-1.167-2.334q-4.085-9.337-.584-9.337h1.751a8.133,8.133,0,0,0-1.167,2.042,18.554,18.554,0,0,0,2.334,3.21q.584-4.669-4.669-27.428a24.972,24.972,0,0,1-.292,2.626,24.122,24.122,0,0,0-.292,3.21,9.6,9.6,0,0,0,.584,2.918q.584,0,1.751,2.334-1.751,18.091-4.669-9.337-1.167-8.753-2.918-28.595Q169.36,511.006,168.776,509.839Zm-.584-2.918a2.378,2.378,0,0,0,.584,1.751l.584-1.751Q168.193,503.419,168.193,506.921Zm-.584-32.1v-7l-.584-4.669Zm0-27.428-.584-7.586q-.584,1.751-.584,12.839l.584,7Q167.609,456.734,167.609,447.4Zm6.419,101.542.584-.584-.584-.583Zm0-4.669V543.1h0Zm-6.419-123.717.584-.584h0Zm2.918,28.6q.584,1.167,1.167.584V447.98l-.584-.584A2.378,2.378,0,0,0,170.527,449.147Zm4.085,85.785h1.167v-.584Zm0-2.918q.584,1.167.584,0v-4.669l-1.751-5.252Zm-1.751-30.929L171.111,486.5v1.751l2.334,28.595Q173.445,515.674,172.861,501.085Zm-2.334-17.507a.729.729,0,0,1,1.167,0Q171.111,482.411,170.527,483.578Zm1.167-8.754-.584-.584Zm-1.167,6.419q.584.584.875.292a3.879,3.879,0,0,0,.292-2.042l-.584-.584A3.38,3.38,0,0,0,170.527,481.244Zm5.252,78.2h0a1.681,1.681,0,0,1-.584,1.167Zm1.167-12.255q.584,0,0-2.334t.292-2.918q.875-.584-.584-1.167t-1.459,1.751Q175.779,547.187,176.946,547.187ZM167.609,366.28v1.751Q168.193,367.447,167.609,366.28Zm15.173,217.672-.584.583ZM171.111,338.269l-1.751,2.918A7.325,7.325,0,0,0,171.111,338.269Zm8.17,150.562,1.167.584Zm4.669,68.861q1.167,4.085,1.751-.584Q184.533,552.44,183.949,557.692Zm-4.669-104.459V450.9q.584-1.167,0-1.167-.584-.584-1.167.584A2.365,2.365,0,0,0,179.281,453.232Zm-1.167-29.762q.584,1.751,1.167,0a.729.729,0,0,0,0-1.167Zm-3.5-126.052V298l1.167-.584-.584-.584Zm-1.751-24.51q.584-.584,0,1.751-1.167,4.085,0,2.918a13.508,13.508,0,0,0,1.751-2.918q1.751.584,3.21-2.043a24.458,24.458,0,0,0,2.334-6.711,20.222,20.222,0,0,0,.292-7.586q-1.167,1.751-1.751,8.17-.584,0-.584,1.751a3.567,3.567,0,0,1-.875,2.626q-.875.875-2.626-.292-1.167,0-2.918,1.751-1.167.584-.875,1.167T172.861,272.909Zm-2.918-12.255q0-.584-.292-.292a6.755,6.755,0,0,0-.875,1.459h.584Q170.527,260.654,169.943,260.654Zm-.584,14.589q0-1.167-1.167-.584a1.681,1.681,0,0,0-.584,1.167q-1.167,1.751,0,2.334Q168.193,278.161,169.36,275.243Zm-4.085,11.671a1.153,1.153,0,0,1,1.751.584h1.167v-.584q-1.751-.584-1.167-5.252l-.875,1.751a22.494,22.494,0,0,0-1.167,2.626Q164.691,286.914,165.275,286.914Zm-18.091,12.839.584.584v-.584Zm-32.1,91.037q.584-.584,0-.584l.584-1.167q1.167-1.167,1.167-1.751a4.478,4.478,0,0,0-1.751.584Q112.17,389.039,115.088,390.79Zm39.683-95.706q0,.584,1.167-1.167a184.978,184.978,0,0,1,5.544-21.3,184.984,184.984,0,0,0,5.544-21.3,1.189,1.189,0,0,1,.292-.875,1.189,1.189,0,0,0,.292-.875,4.479,4.479,0,0,1,.584-1.751,6.5,6.5,0,0,0,.584-2.918q2.918-9.337,1.751-12.839-.584-1.751-2.918,4.669-1.167,1.167-.584,1.751.584,0-1.167,3.793t-1.167,4.96l-1.751,6.419q-4.669,20.425-7,20.425l-1.167-1.751q1.167,0,.584-1.167-1.167-1.751-2.334.584v1.751q-4.085,7.586-2.918,11.088l2.334-4.085q1.167-4.669,2.334-4.085,2.918,1.167,0,8.17a8.852,8.852,0,0,1-5.252,4.669,7.24,7.24,0,0,1,2.043.875,1.189,1.189,0,0,1,.292.875q-.584,1.167,0,1.751-.584,1.167-1.167,6.419-2.334,5.252-3.5,5.252-1.751-.584,1.167-8.754l.584-8.17q-.584,0-1.167,2.334-1.751,5.836-5.544,15.173a79.087,79.087,0,0,0-4.96,16.34q-.584,1.167-.584,0,.584-.584.584-2.918-3.5,6.419-11.38,24.51t-13.13,25.677q.584.584-9.045,11.963t-8.462,14.881q5.252,1.751,10.8-3.21a39.661,39.661,0,0,0,9.045-11.963,8.535,8.535,0,0,0,4.085-2.918,30.1,30.1,0,0,0,2.626-5.544,43.167,43.167,0,0,1,3.21-6.711q.584.584,1.167-.584-1.167-1.167.584-3.21a6.615,6.615,0,0,0,1.751-4.377q1.167-5.252,3.5-6.419l-1.167,6.419a45.279,45.279,0,0,0-2.334,5.836,3.37,3.37,0,0,0-1.459,3.5q.292,2.334.292,2.918t-2.918-.584l-.292.584a9.045,9.045,0,0,0-.584,1.751,12.275,12.275,0,0,0-.292,2.918q0,.584-3.5,5.252t-1.751,7.586q0-.584,1.167-1.167l1.751-2.334v1.167a25.311,25.311,0,0,1-4.96,6.419q-2.626,2.334-5.252,4.96a40.023,40.023,0,0,0-4.96,6.127,4.8,4.8,0,0,0,1.459-.292,6.466,6.466,0,0,1,2.042-.292q3.5,1.167,6.711-1.751a16.375,16.375,0,0,0,4.377-5.836q.584.584,2.334-.584a5.581,5.581,0,0,0,2.334-3.21q.584-2.042-1.167-5.544,4.669,2.918,4.669,1.751v-2.334q2.334,1.167,3.5-1.459t1.751-2.626v-.584h.584l-1.167-2.334q1.751,0,2.918-2.918t2.918-9.045q1.751-6.127,2.334-7.878,1.167-1.167,1.459-5.252a19.971,19.971,0,0,1,2.042-7.586.953.953,0,0,1-.292-1.167,2.239,2.239,0,0,0,.292-.875,8.771,8.771,0,0,1,.292-1.459q.292-1.167.875-2.918,1.167,0,1.167-.292t.584-.292q.584,0,.292-.875a6.465,6.465,0,0,1-.292-2.043,30.957,30.957,0,0,1,.292-3.5,21.589,21.589,0,0,1,1.459-5.252q0-1.751-1.167-1.751-1.167.584-.584,3.5-1.751,2.918-1.751.584-.584-7,2.334-7,.584,0,1.167,1.167.584-1.167,1.167-.584l.584-.584-1.167-2.334-.584-.584a17.386,17.386,0,0,0,1.751-2.334h0q-2.334,1.167-1.751,2.334-.584.584-1.167-.584,2.334-2.918,3.21-9.629A51.623,51.623,0,0,1,154.771,295.084Zm9.921.584q.584,1.751,1.751,1.167t-.584-2.334h-2.043a1.98,1.98,0,0,0-1.459.584,3.663,3.663,0,0,0-.875,1.459q-.292.875-.875,3.21a10.237,10.237,0,0,1-1.167,2.918l-.584,3.5a35.3,35.3,0,0,0,2.334-2.918l.292-2.334a12.571,12.571,0,0,1,1.167-4.085Q163.524,295.084,164.691,295.668Zm-9.337,22.176-.584-1.751a1.681,1.681,0,0,0-.584,1.167v3.5A7.18,7.18,0,0,0,155.354,317.844Zm-.584-13.422q-.584,1.751.292.584t.292-1.751Zm2.334-4.085h-.584q-2.918-.584-1.751.584T157.1,300.336Zm-2.918,28.011q.584-1.751,2.626.292t2.626-6.128q0-1.751-1.167.584-2.918,3.5-5.836,4.085l-.875.292a1.348,1.348,0,0,0-.875,1.459L150.1,330.1q-.584,4.669,1.167,1.167l.584-1.167h1.167l.584.584Zm-1.167,11.088v1.751q.584,0,1.167-1.751,1.167-1.167,0-1.167Zm-5.252,2.334q.584-.584,0-1.751Zm-1.751,4.669q1.167-2.918,3.21-.584t3.21.584q.584-1.167-2.334-2.334-3.5-1.751-4.085,1.167Zm4.085,4.669q0-1.751-1.751-.584t1.167,2.918q1.167-2.334.584-.584l.584-2.334Zm-3.5-2.334v.584S146.6,349.162,146.6,348.773Zm.584,9.921q-1.167-4.085-1.751.584Q146.6,362.2,147.184,358.694Zm-4.669,3.5v.584h1.751A1.153,1.153,0,0,0,142.516,362.2Zm0,1.751q1.751,1.167-.584,2.334,0,1.751,2.334,0Q145.433,365.113,142.516,363.946Zm-4.085,13.422q-1.167,0-1.751,1.751l1.167-.584A1.682,1.682,0,0,0,138.431,377.368ZM136.1,383.2a2.378,2.378,0,0,0-1.751-.584l1.167,1.167Zm-3.5,11.671q-.584-1.167-2.334.584a1.681,1.681,0,0,0-1.167.584q-2.334,2.334-1.167,2.918T132.595,394.875Zm-6.419,1.167.584.584Q127.926,394.875,126.176,396.042Zm0,4.669q0-1.751-1.751,0Q125.008,402.462,126.176,400.711ZM107.5,398.377q1.751-1.167,1.459-1.459t-2.043,1.459Zm-1.751,10.5q-4.085-1.167-5.836,0l5.836,1.167A.729.729,0,0,0,105.75,408.881Zm-13.422-8.754ZM157.1,265.322q-1.167-1.167-1.751-.584l1.751,1.751Zm5.836-18.674q-1.167-.584-.875-2.626a24.968,24.968,0,0,0,.292-2.626q0-.584-2.334,1.167a3.694,3.694,0,0,0,.292,3.21A2.006,2.006,0,0,0,162.941,246.648Zm-.584-6.419v-1.167a3.817,3.817,0,0,1,1.751-1.751q1.167-1.751-.584-1.751-.584,0-1.167,1.167Zm2.334-8.17q-.584,0,.584-1.751.584-1.751.292-1.751h-1.459l-.584,5.252q0,.584.584,0Zm4.085-19.258a.516.516,0,0,1-.584-.584Zm2.334-5.836h0Zm2.334,9.337q-1.167,4.085-.584,4.085.584.584,1.751-.584l-.584-4.085Zm1.167-29.179-1.751,3.5a2.308,2.308,0,0,0,.292,1.459q.292.292,1.459-2.042ZM175.2,212.8q1.167,1.751,1.167,0Q176.363,213.968,175.2,212.8Zm1.751-36.181,1.167.584A1.682,1.682,0,0,0,176.946,176.619Zm9.921,43.768-.584.584Zm-.584,4.085-1.167,1.167.584.584Q186.867,225.056,186.283,224.472Zm-2.918,26.261q-.584-1.751-1.751-1.167l1.167,2.334Zm-12.839,7a.953.953,0,0,0,.292-1.167q-.292-.584-1.459,1.167V258.9Q169.36,259.486,170.527,257.736Zm5.252,10.5q.584-1.751,1.751-4.96a36.479,36.479,0,0,0,1.751-7.295l.292-2.043a25.313,25.313,0,0,0,.292-3.5A2.09,2.09,0,0,0,178.7,248.4q1.751,1.167,2.918-2.334.584-2.918,0-3.5-.584-1.167-2.918.584a12.2,12.2,0,0,1,.584,2.043,26.2,26.2,0,0,1-1.459,3.5q-1.459,3.21-2.043,4.96-1.751,3.5.584,2.918,1.751,0,.584,1.167l-1.751,1.751q-2.918,2.334-1.751,4.669t0,2.918q-2.334,1.167-1.167,2.334Q172.861,270.574,175.779,268.24Zm9.921-39.1-1.167-.584q-1.751.584-1.459,1.167T185.7,229.141Zm8.17-38.516v1.751Q194.453,191.792,193.87,190.625Zm1.167-2.334q0-.584-1.459-1.167t-.292.584Q195.037,190.041,195.037,188.291Zm-7.586,6.419q-4.085,14.006-4.669,16.34a6.676,6.676,0,0,0-1.167,2.626,28.573,28.573,0,0,0-.875,4.669q-.292,2.626-.875,3.21l-.584,1.751q-1.167,5.836-2.334,7.586,0,1.167-3.5,14.006-2.334,5.252,2.334,2.334.584-8.754,12.255-38.516a45.916,45.916,0,0,1,1.167-7.295,45.863,45.863,0,0,0,1.167-9.045q.584,0,.584-.875a5.507,5.507,0,0,0-.292-1.751,7.082,7.082,0,0,1,0-2.918,9.074,9.074,0,0,1,1.459-3.793,2.365,2.365,0,0,0,2.918,1.167q1.167,0,0-1.751-2.334.584-2.918-.584t1.751-3.5a6.069,6.069,0,0,1-2.334-.292q-.584-.292-1.459,2.043a25.831,25.831,0,0,0-1.167,3.793q-.292,1.459-.584,4.96A37.439,37.439,0,0,1,187.451,194.71Zm-3.5-42.6-1.167,1.167.584,1.167A3.38,3.38,0,0,0,183.949,152.109Zm3.5-11.088q0-2.334-1.751-1.167-.584,2.334.584,2.918Zm.584-4.669q-.584-1.751.584-1.167V134.6a9.553,9.553,0,0,0,.584-2.334l-1.751,4.669Zm2.918-6.419q0-1.167-1.459-1.459t-.292.875Q190.952,131.1,190.952,129.934Zm2.334,46.1.584-.584q1.167-1.167,0-4.085-.584-1.167-1.751,1.167Q191.536,176.036,193.286,176.036Zm-1.751-56.606,1.167.584Zm2.918,44.935a4.479,4.479,0,0,0-.584,1.751q0,.584,1.751.584Q196.2,165.531,194.453,164.364Zm1.167-2.918.584.584v-1.167Zm-1.167,459.271-1.167-1.167ZM78.323,387.289h.584a6.015,6.015,0,0,0,1.167,2.334q3.5,7.586,4.669,2.918-.584,0-2.334-2.334a7.779,7.779,0,0,0-3.5-2.918Zm1.751,11.088a1.681,1.681,0,0,0-1.167-.584q-1.751,0-.584.584ZM56.73,202.3a3.76,3.76,0,0,0,0-2.918Zm-11.088,57.19v1.751Q46.226,260.654,45.643,259.486ZM73.07,389.039q-3.5-1.751-1.167-2.918.584-.584,1.751,1.751a7.4,7.4,0,0,1,1.751,3.5l.584.584q1.751,2.918,2.918,1.167-5.252-5.252-11.671-28.595t-7-24.51q-.584,1.751.584,7.295a30.957,30.957,0,0,1,.584,10.213q-.584,0-.584-.292v-2.042a11.015,11.015,0,0,0-.584-3.5q-3.5-10.5,1.167-19.258a34.941,34.941,0,0,0-1.751-5.252,22.848,22.848,0,0,1-1.751-7.586q2.334-2.918,3.5,2.334.584,1.751,1.167,0a5.673,5.673,0,0,1,1.167-2.918q.584-1.167,0-1.751H61.983l2.334-1.751H63.15q-5.252,1.167-5.252-.584t2.334-5.252q2.334,4.085,3.5,0,0-1.751-1.167-1.751l-1.459.584q-1.459.584-3.21,1.167a5.4,5.4,0,0,1-3.5,0q.584-1.167,1.167-.584,1.167,0,1.459-1.459a18.124,18.124,0,0,0,.292-3.5,23.11,23.11,0,0,0-.292-3.793,8.881,8.881,0,0,1,0-3.21q.292-1.459,2.042-.875a4.935,4.935,0,0,1,2.334-2.043q1.751-.875,1.167-1.751l-2.918-4.377a3.789,3.789,0,0,1-3.21-1.167q-.875-1.167.875-5.836.584,2.334,1.751,5.836a30.285,30.285,0,0,1,1.167-3.793A3.327,3.327,0,0,1,61.4,281.37a1.176,1.176,0,0,0,.584-1.167q0-.875-1.751-3.21-1.751,0,0-.584a2.288,2.288,0,0,0-1.751,2.334q-2.918-2.918-.584,0-1.751-2.918-.584-3.5.584,1.751,2.042-.875t.292-2.626H58.481l-1.167,1.167q0-1.167,1.751-4.669l-2.334.584,5.252-1.751q-.584-.584.292-1.167t1.167-3.21q.292-2.626-.875-3.21a10.647,10.647,0,0,1,.292-5.544,11.65,11.65,0,0,0,.292-5.836,5.515,5.515,0,0,0-4.085-4.377,8.81,8.81,0,0,0,2.918-3.5s0-.195,0-.584q1.751-4.085,1.751-14.006t-.292-22.176q-.292-12.255-.292-17.507a24.128,24.128,0,0,0-.292-3.21,41.21,41.21,0,0,1-.292-5.544,1.681,1.681,0,0,0,1.167-.584,6.788,6.788,0,0,0,1.167-1.751l1.167-2.334-3.5,3.5a26.8,26.8,0,0,0,1.167-13.422q-.584-2.918-2.918,3.5-.584.584-.292,3.793a12.509,12.509,0,0,1-.584,5.544q-.875,2.334-4.377.584-.584-1.751-.584-.584,0,2.918,4.085,4.669,1.751,5.252-.584,11.671-.584,1.751-.584-.584v-4.085a3.76,3.76,0,0,0-1.751,2.334q0,2.334-1.751,2.918l.292.584a9.043,9.043,0,0,1,.584,1.751q.292,1.167.875,2.918,1.751-4.669,2.334.584v9.337l-2.334-3.5-.584.584a19.185,19.185,0,0,1-.584,4.669q-2.334.584-1.167,1.167,1.751.584,0,2.334l-.584,6.419q1.751-.584.584,1.167-1.167,2.334-.584,3.5v-.584l1.751,5.836H54.4q-1.167-1.167-1.459-.875a2.308,2.308,0,0,0-.292,1.459q-.584,0-.292,12.547t.292,13.13a7.061,7.061,0,0,1-.875,4.085q-.875,1.167-3.793.584-1.167,2.334-.875,3.5t3.21,1.751q0-4.669,1.751-.584,1.751,5.836,0,9.337-1.751,0-1.751-2.626a7.724,7.724,0,0,0-1.167-4.377q-2.334,2.334-.875,20.717t.875,21.884q1.167,4.669,0,4.669-1.751,0-3.5-11.088-2.918-54.272-2.334-83.451,0-.584.584-10.8t0-10.8l-1.167.584q-.584,2.334-2.334.584t.584-7q.584-.584-.584-.584t-.584-.584q0-5.252,1.751-32.1l1.751-33.847q-1.167,1.751-3.5,21.592.584,3.5-.584,4.669.584,4.669-.292,16.048t-2.626,16.048q.584,4.085.875,9.337a89.416,89.416,0,0,1,0,10.212q-.292,4.96-.875,12.839t-.584,14.3q.584,1.751.584,13.422t1.167,15.756v.584a2.847,2.847,0,0,0-.584,2.043q0,1.459,0,3.5a7.277,7.277,0,0,1-.584,3.21q-.584.584,0,.584-.584,1.167,4.085,8.17.584,2.918-.584,3.5l-1.167,9.337q0,17.507,3.5,15.756a2.378,2.378,0,0,0-.584,1.751v5.252a5.636,5.636,0,0,1,.875,2.918q.292,2.334.584,4.96l.584,5.252q.292,2.626.584,4.377t.875,1.751q.584,0,1.751,4.669,0,.584,1.167-1.167a22.642,22.642,0,0,0,1.167-2.918l1.167-1.751V330.1a2.338,2.338,0,0,1-2.918-2.918q2.334-.584,2.334-1.167a2.39,2.39,0,0,0-.875-1.459,6.765,6.765,0,0,1-1.459-2.918,15.792,15.792,0,0,1,0-6.128q0-1.751.584-.584a14.856,14.856,0,0,0,3.5,3.5,13.232,13.232,0,0,0,0,5.544q.584,3.21,1.167,8.754a30.089,30.089,0,0,1,0,8.462q1.167,1.167,4.085,15.173,1.167.584,1.751,3.5t1.459,6.419a11.1,11.1,0,0,0,2.626,5.252,4.726,4.726,0,0,0,.875,2.918,13.19,13.19,0,0,1,1.167,1.751q.292.584-2.043,2.334,0,.584.292.292t1.751,0a4.287,4.287,0,0,1,2.626,2.043H68.4l-1.751-6.419q2.334.584,2.918,11.671Q69.569,391.957,73.07,389.039Zm1.167,4.085q-.584-2.334-1.751-.584l1.167,1.751ZM47.393,339.436q-1.167,1.751,1.751,9.921,1.751,4.085,2.334.584v-2.918a17.546,17.546,0,0,0-.584-2.918q-.584-2.334-1.167-4.085T47.393,339.436Zm-8.17-203.083.584-.584h0Zm1.167-9.921.584-1.167h0A1.681,1.681,0,0,1,40.39,126.432Zm4.669-10.5a125.771,125.771,0,0,1,1.459-14.589q1.459-10.5,2.334-16.34t-.875-9.337q0,.584-1.751,15.173L43.892,120.6A19.4,19.4,0,0,0,45.059,115.928Zm7-29.179v0Zm-.584,7.586q0-1.167-.584-1.167L50.311,95.5Q50.311,97.254,51.478,94.336ZM54.4,145.106l-2.918,2.334A35.314,35.314,0,0,0,54.4,145.106Zm-.584,5.836q-.584-4.085-1.167-1.167a10.015,10.015,0,0,0,.584,4.085Zm-1.167,16.34a1.153,1.153,0,0,0-.584-1.751l-1.167,1.751.584.584Zm-4.085-49.6,1.167-1.167q0-1.751-.584-1.751-1.167,0-1.751,1.751A1.032,1.032,0,0,0,48.56,117.679Zm1.167-8.754q0-1.167.584-5.836l-.584-3.5Q47.393,104.84,49.728,108.925Zm.584,1.751v0Zm.584,85.2L50.019,195l-.292-.292Zm-2.626,21.3q.292,3.793.875,3.793t0-2.918a7.045,7.045,0,0,1,.875-2.334,2.064,2.064,0,0,0-.875-2.918Q47.977,213.384,48.269,217.177Zm2.042,23.051q.584-.584-1.167-2.918-1.167-.584-1.167,0l.584,2.918Q49.144,241.4,50.311,240.229Zm-4.085-5.252v1.751Q46.81,236.144,46.226,234.976ZM50.311,255.4q.584,0,0-1.751.584-1.751-1.167-2.042t-1.751.875Q47.393,253.651,50.311,255.4Zm-6.419-61.275q0-9.337-1.167-11.671-2.918,15.173-.584,14.589Q42.725,197.044,43.892,194.126Zm5.836,40.266-.584-7-1.167,3.5q0,4.085,1.167,4.669Q49.728,236.144,49.728,234.393Zm-4.085-57.774q-2.918,0-.875-1.167t.875-1.751q0-2.334-.584-2.918,0-2.334-1.751,1.167-1.751,5.836-.584,7A5.624,5.624,0,0,0,45.643,176.619Zm-1.751-8.17v0Zm2.918-3.5-.584-.584v1.167Zm-1.167-7.586-.584-1.167-1.167.584v7.586l1.167-2.918q-.584,0,1.167-2.918Q46.226,157.361,45.643,157.361Zm-1.167-5.252a53.952,53.952,0,0,0,1.751-6.419q2.334-2.918,0-4.085-.584-.584-1.167,1.167Q43.892,145.69,44.475,152.109Zm6.419,20.425q-.584.584.584,8.17l-.584-1.167q.584,0,.875-1.459a8.882,8.882,0,0,0,0-3.21A4.463,4.463,0,0,0,50.895,172.534Zm2.918-42.6.584.584Zm2.334-5.836v-1.751q0-.584-1.167,1.167-1.167,2.918,0,3.5Q54.98,127.6,56.147,124.1ZM53.813,69.242q0-1.751-.584-1.751v3.5q0,.584.584,0Zm1.167,45.519a2.352,2.352,0,0,0,1.167,2.334V113.01Zm.584-4.669q1.751,1.167,1.751-.584Q55.563,108.341,55.563,110.092Zm2.334-7q1.167-.584,1.167-1.167H57.9Zm1.751-13.422a.729.729,0,0,1,0-1.167l1.167-2.334a1.869,1.869,0,0,0-1.751,1.167Q57.9,89.667,59.648,89.667Zm.584-6.419q.584-1.751-1.167,0-.584.584,0,1.751Zm5.252,55.439q1.751-1.751,0-6.419-.584-1.751-.584.584V134.6a25.038,25.038,0,0,0-1.167,6.419l.584-.584Q66.068,140.438,65.484,138.687Zm1.167-15.756q-1.167.584-.584,1.167v2.918a1.681,1.681,0,0,1,.584-1.167,1.681,1.681,0,0,0,.584-1.167A4.479,4.479,0,0,0,66.651,122.931Zm-.584-2.334v.584l1.167-.584-.584-.584Zm3.5-6.419q0-.584-1.751-.875t-.584.875Q68.985,115.344,69.569,114.177Zm1.751-5.836-1.751-.584q-1.167,0-.584.584T71.32,108.341Zm0-3.5a1.153,1.153,0,0,0-.584-1.751A2.378,2.378,0,0,1,71.32,104.84Zm0-16.924h1.167l-.584-.584Zm-6.419,71.2q-1.167-.584-.584-8.17,0-4.669-.584-1.751L61.4,157.945Q61.4,161.446,64.9,159.112Zm1.751,7.586v.584l.584-.584ZM63.733,342.937q0,1.751.584,1.751l1.751-2.918q2.334-.584,1.459-1.751t-3.21,1.751A1.681,1.681,0,0,1,63.733,342.937Zm-2.918-36.765q5.252-1.751,2.334-5.836L61.983,301.5q-.584,1.167-.875.875a2.308,2.308,0,0,1-.292-1.459q-.584-4.669-1.167,0Q59.648,305.589,60.815,306.172Zm0-8.754q2.334.584,2.334,1.167,0-.584,0-1.751l-2.334-.584Zm5.252,40.266q-1.751-.584-.875-1.751a3.543,3.543,0,0,0,.875-1.751q0-.584-2.334,0l-.584.584-.584,1.751.875,1.459Q64.317,339.436,66.068,337.685Zm3.5,14.006a2.288,2.288,0,0,1-2.334-1.751q-1.167-1.167,0-1.167a22.642,22.642,0,0,0,2.918,1.167q-2.918-7.586-4.669-2.334-1.167,5.252,2.918,13.422.584.584,1.167,4.085t1.751,4.669l.584,2.334q.584,1.167,1.167.584t-.584-1.751a3.286,3.286,0,0,0,.292-3.5,47.647,47.647,0,0,1-2.334-6.711A21.362,21.362,0,0,1,69.569,351.691ZM75.4,370.949H74.238q0,.584,1.751,1.167Q76.572,371.532,75.4,370.949Zm1.751,5.252v-.584q-1.167-2.918-2.334-1.167l-.292.292-.875.875q-1.167.584-1.167.875t1.751.292a4.479,4.479,0,0,0,.584,1.751Q75.988,376.2,77.155,376.2ZM75.4,382.62q.584-1.167,1.167-.584a.516.516,0,0,1,.584-.584q1.167-1.167,1.167-1.751,0-1.167-2.334.584A5.179,5.179,0,0,0,75.4,382.62ZM217.8,94.336v1.751Q218.38,95.5,217.8,94.336ZM443.055,257.152a3.71,3.71,0,0,1,2.334,2.918q.584.584.584,2.918a20,20,0,0,0,.292,3.793q.292,1.459,2.043.875a56.841,56.841,0,0,1-18.091,15.756q-.584,2.334-4.085,4.085a19.8,19.8,0,0,1-4.96,5.544q-3.793,3.21-9.629,8.462t-9.921,9.337l-1.751,1.167a40.129,40.129,0,0,0-3.793,2.918q-2.043,1.751-2.043,2.918v.584a6.788,6.788,0,0,1-1.751,1.167q-5.836,3.5-17.507,18.091l-1.167.875a17.538,17.538,0,0,0-3.793,3.793,3.88,3.88,0,0,0-.875,2.334,4.405,4.405,0,0,0,1.167,2.626,9.863,9.863,0,0,0,4.085,2.626l.584.584a7.324,7.324,0,0,0,1.751,2.918q.584,1.751,1.751,1.459t1.167,3.21q1.167,1.751,1.751,0a25.314,25.314,0,0,1,2.043,2.626q1.459,2.043,2.626,3.793a21.468,21.468,0,0,0,4.085,5.252,37.192,37.192,0,0,1,4.669,5.544,5.665,5.665,0,0,1,.584,5.544,2.48,2.48,0,0,0,2.334,0q.584,0,1.167,1.167v4.669a5.107,5.107,0,0,0,2.918,2.042,12.12,12.12,0,0,1,2.626,1.167q.292.292-.875,2.626,2.334.584,2.626,1.459t2.043,6.711q.583,0,1.459,1.459a6.122,6.122,0,0,1,.875,3.21,3.959,3.959,0,0,1-1.167,2.918q1.751-.584,2.334.292a4.775,4.775,0,0,1,.584,2.626q-.584-.584-1.751,0l.584.584a1.681,1.681,0,0,0,1.167-.584,7.325,7.325,0,0,1-1.751,2.918q2.334-1.167,3.21.292t1.167,5.544q.292,4.085.292,5.252,2.334,9.921,2.334,55.439-1.751,1.751-1.751,7a19.488,19.488,0,0,1-1.751,8.754q.584.583-2.918,5.836-2.334,15.173-15.756,34.431a.73.73,0,0,0-1.167,0q1.167-.584,1.167.584-.584,4.668-5.836,9.337a4.479,4.479,0,0,1-1.751.584q-1.167,0-.292,2.043t-2.043-.292l-2.918-2.334.584,1.167q.584.584-.584,2.334a10.419,10.419,0,0,1-2.918,2.918q-1.751,1.167-2.334.584.584,0,.584,1.167,2.334,3.5-1.751,6.419-2.918,4.669-11.671,9.921-1.167-3.5-1.751-1.751-2.334,5.836-8.17,6.419h-1.167l2.334-1.751,3.5-2.918h-.584a38.292,38.292,0,0,0-6.128,3.21q-4.377,2.626-4.377,3.21l-6.711.584q-6.711.584-12.839.584t-5.544-1.167l-.584-.584q-1.167,1.167-2.918-1.167-1.167,2.334-7.295-1.459a64.689,64.689,0,0,1-11.671-9.337q-5.544-5.544-6.128-7.878-8.754-12.255-10.5-29.179.584-2.918-.584-3.5l-1.167-1.167.584-.584q0-1.167-.875-7.586a85.318,85.318,0,0,1-.875-11.38q0-4.96.584-11.963-1.167-7.586,1.167-11.088a2.836,2.836,0,0,0-.584-1.459,3.138,3.138,0,0,1-.584-1.751,4.7,4.7,0,0,1,.584-2.043q.584-4.669,2.334-14.589v-.584l1.167-1.167q-.584-.584,0-1.751l.292-.875q.292-.875.584-2.043t.584-2.918a21.264,21.264,0,0,0,.292-3.5l.584-.875a6.509,6.509,0,0,0,.875-2.334l.584-2.918a26.984,26.984,0,0,1,.875-3.21,22.643,22.643,0,0,1,1.167-2.918,101.515,101.515,0,0,1,5.544-16.632q4.377-10.8,9.045-21.009t5.252-15.465l.584-1.167,1.167-2.334,3.5-2.918q.584-1.167,0-1.167,0-.584,1.459-2.043a3.731,3.731,0,0,0,.875-3.793q0-1.167,2.334-2.918t2.918-5.836q4.668-7,11.671-18.674a43.137,43.137,0,0,0-11.38-9.921q-6.711-4.085-13.714-8.462a65.657,65.657,0,0,1-11.671-9.045q-5.836-1.167-11.088-7.586-.584,0-2.626-1.751t-4.377-3.5a34.114,34.114,0,0,1-3.5-2.918,1.379,1.379,0,0,0-1.167-1.459q-1.167-.292-1.167-3.21h-1.167q-1.751-.584-1.751-2.918-6.419-1.751-8.754-11.088l-.584.584q-1.167.584-1.751-1.167v-1.751q-10.5-9.337-21.592-32.68Q225.383,198.211,260.4,144.523q.584,0,.875-1.167T263.9,141.6a1.631,1.631,0,0,0,2.334-1.167q-4.669-1.167.584-4.669h.584l1.167-1.167a20.605,20.605,0,0,0,2.043-1.459q.292-.292-.292-.875-1.751,0-1.167-.584,0-3.5,5.252-6.419a4.479,4.479,0,0,1,1.751-.584q0-1.751,4.669-7.586a2.81,2.81,0,0,0,2.042-2.334q.292-1.751,4.377-3.5,5.252-6.419,11.963-13.13a130.117,130.117,0,0,1,14.589-12.547q7.878-5.836,16.632-11.088a122.474,122.474,0,0,1,17.507-8.754q4.669-2.918,22.176-7,1.751-.584,6.128,0a26.654,26.654,0,0,0,7.878,0,13.144,13.144,0,0,1,2.626.584,25.623,25.623,0,0,1,4.377,1.751l2.334,1.167a.953.953,0,0,0,1.167.292q.584-.292,2.334.875,19.841,4.669,22.176,30.346,1.167,16.924-5.252,19.841-4.085,1.751-8.754-5.836a2.39,2.39,0,0,0-.875-1.459,19.049,19.049,0,0,1-1.751-2.043q-.875-1.167-.292-1.751a1.682,1.682,0,0,0-.584-1.167A9.814,9.814,0,0,1,400.162,99a19.978,19.978,0,0,1-1.459-4.085q.584-1.167-1.751-3.5l-4.085-.584q-5.252-2.334-14.881.292a48.977,48.977,0,0,0-16.048,7.295q-5.252,1.167-14.006,7.295a77.824,77.824,0,0,0-13.422,11.38Q267.4,177.786,262.731,236.727v.584q.584,2.334,2.334,13.13t4.085,16.048q5.252,9.921,44.935,39.1,37.349,27.428,35.014,16.34l10.5-12.255q2.334-3.5.584-3.5t.584-1.167l2.918.584a76.656,76.656,0,0,1,7.878-9.921q4.377-4.669,9.629-9.921t8.754-9.337q0-1.167,2.626-1.751a4.041,4.041,0,0,0,3.21-3.5,27.435,27.435,0,0,0,5.836-3.5q4.085-2.918,7.586-5.836a52.525,52.525,0,0,1,7.586-5.252q4.085-2.334,6.419-2.334.584.584,3.793-1.459a12.834,12.834,0,0,1,7.878-1.751Q439.554,251.316,443.055,257.152Zm-42.6-162.816.584,1.167ZM300.08,142.772l-.584.584q-.584,1.167-.292.875a20.6,20.6,0,0,1,2.042-1.459Zm64.776-75.281a1.869,1.869,0,0,0,1.167-1.751.516.516,0,0,0-.583-.584,2.378,2.378,0,0,0-1.751.584Zm-7.586,2.918v-.584a5.18,5.18,0,0,1-2.334-.584q-1.167-.584-1.167,0-1.167,1.751,1.167,1.751Zm-5.836,1.167q-1.167-1.167-1.167-.584l1.167,1.751Zm-2.918,2.918h0Zm-6.419,0q1.167,4.085,1.751,0Q342.681,70.409,342.1,74.494ZM336.261,78a4.479,4.479,0,0,0,1.751.584q.584,0,0-1.167,1.167-1.167.584-1.751a1.631,1.631,0,0,0-2.334,1.167ZM318.754,88.5H320.8a4.337,4.337,0,0,0,3.21-1.167q3.5-4.085,2.918-4.669T318.754,88.5ZM310.584,99a7.18,7.18,0,0,0,1.167-2.918q-1.167-4.669-17.507,14.006-7,7.586-5.252,7,1.167,0,5.252-3.5l2.043-2.042q1.459-1.459,4.377-4.669a34.591,34.591,0,0,1,6.419-5.544,3.817,3.817,0,0,0,1.751-1.751A1.153,1.153,0,0,1,310.584,99Zm-24.51,21.009v0Zm-39.683,55.439,2.918-2.334Zm-1.167,4.085h.584l-.584-.584Zm-.584,4.669v0Zm-2.918,7q.584.584.875.584t-.292-1.167Zm-1.751,41.434v1.751Q240.556,233.809,239.972,232.642Zm1.167-3.5.584,1.167Zm-.584-19.258h1.167l-.584-.584Zm4.669-15.756-1.167-1.167a4.479,4.479,0,0,0-.584,1.751Q243.473,195.294,245.224,194.126Zm.584-3.5v-.875q0-.292-.584.292Zm-2.334-4.085q-1.751,0,0,1.167,1.167.584,4.085,0-.584,0,1.751-5.836l1.751-4.669-.584.584a12.525,12.525,0,0,0-2.334,4.085,19.362,19.362,0,0,1-2.043,4.085A2.131,2.131,0,0,1,243.473,186.54Zm9.921-26.553q1.167-.875.584-1.459t-1.167.875Q252.227,160.863,253.394,159.987Zm.584,11.38q0-1.167-.584-.584Zm4.669-17.507h0Zm-.584,78.782q0-.584,0-.584a1.681,1.681,0,0,1-1.167-.584Zm0-8.754q-.584-2.918.292-3.793a2.39,2.39,0,0,0,.875-1.459q.584-2.334,2.334-8.754t2.918-11.088a2.59,2.59,0,0,1,1.167.292q.584.292.875,0a9.047,9.047,0,0,0,.875-2.626,2.59,2.59,0,0,1,.292-1.167,9.04,9.04,0,0,0,.584-1.751,9.592,9.592,0,0,0,.292-2.334q5.252-10.5,8.17-15.756a12.493,12.493,0,0,1,2.918-6.711q2.334-2.626,6.711-7a74.9,74.9,0,0,0,9.045-11.38,6.015,6.015,0,0,0-2.334,1.167q-2.918,2.334-2.918,1.751t2.334-2.918l1.751-2.918q2.334-1.751,1.167.584,0,1.751,1.167-.584,3.5-7.586,5.836-8.17a7.325,7.325,0,0,1,1.751-2.918q1.167-1.167,4.085-3.793t6.419-6.127q4.085-5.836,24.51-20.425l1.167-.584q-1.167,0,1.167-1.751a6.79,6.79,0,0,1,1.751-1.167q5.836-3.5,7.586-5.836,0-1.167.584-.584,9.337-4.085,10.5-5.252,10.5-2.918,9.921-4.669-.584-3.5-17.507,4.669L352.018,92q2.334-4.085,19.258-10.5-14.589,2.918-30.054,13.422t-23.051,17.8q-7.586,7.295-21.009,21.884a5.106,5.106,0,0,0-2.043,2.918,5.107,5.107,0,0,1-2.042,2.918q-1.167.584-5.836,7.586a1.681,1.681,0,0,1-.584,1.167,17.069,17.069,0,0,1-1.751,1.459,5.792,5.792,0,0,0-1.751,2.042v.584a7.325,7.325,0,0,1-1.751,2.918q-5.836,8.17-12.839,23.343,0,1.167-2.042,4.96a46.463,46.463,0,0,0-3.21,7.295,1.153,1.153,0,0,1-.584,1.751q-1.167,4.669-2.918,12.255-.584,0-1.167,3.5-.584.584-.584.875t0,.875q0,.584,0,2.043a10.224,10.224,0,0,1-.584,3.21v9.337q0,.584.584,0Q258.063,225.056,258.063,223.889Zm4.085,27.428q0-1.167-.584-.875t0,1.459q.584.584.875.584T262.148,251.316ZM277.9,291.583a6.789,6.789,0,0,1,1.167,1.751,16.019,16.019,0,0,1,.875,2.043,2.812,2.812,0,0,0,1.167,1.459q.875.584,1.459,0t-4.669-5.252l-1.167-1.167Zm75.864,55.439q1.751,0,1.751-.292t-4.085-4.377Q347.349,345.271,353.768,347.022ZM322.839,325.43a82.861,82.861,0,0,1,12.255,8.754,10.237,10.237,0,0,1,2.918,1.167q2.334,1.167,2.334.584.584,0-1.167-2.918-2.918-2.334-16.924-11.088-12.255-8.754-13.422-9.337a6.015,6.015,0,0,1-2.334-1.167l-4.377-2.918a41.408,41.408,0,0,0-3.793-2.334,7.325,7.325,0,0,0-2.918-1.751,14.731,14.731,0,0,1-3.5-1.751,10.42,10.42,0,0,1-2.918-2.918q-.584,2.334,4.96,6.419t15.173,9.921A112.116,112.116,0,0,1,322.839,325.43Zm-2.918,53.689,1.751-1.167.584-2.334A24.813,24.813,0,0,0,319.921,379.119Zm8.754,13.422Q351.434,362.2,349.1,352.274q-1.751-7-14.006,11.088a197.988,197.988,0,0,0-13.422,23.343l-3.5,8.754q-17.507,42.017-10.5,41.434a20.41,20.41,0,0,1,.875-4.96,37.9,37.9,0,0,1,3.21-7.586q2.334-4.377,3.793-7.878a102.5,102.5,0,0,1,4.669-9.337,77.1,77.1,0,0,1,4.96-8.17q-.584,0,.584-1.751Q328.091,393.708,328.675,392.541Zm7-2.334a2.378,2.378,0,0,0-1.751-.584l1.167,1.167ZM310.584,434.85q1.167-.875.584-1.459t-1.167.875Q309.417,435.725,310.584,434.85Zm-2.334,13.13v0Zm-7,15.173h0l-.584.584Zm2.918-17.507q-2.918-2.334-2.918,1.167l.584,2.334Q302.414,449.731,304.165,445.646Zm1.751,7.586q0-.584-1.167,0l-1.167,1.167Q304.165,454.983,305.916,453.232Zm11.671-64.776L317,386.122q-.584-.584-1.751,1.167a2.378,2.378,0,0,0-.584,1.751l-2.918,8.17q0,.584,2.334-1.751l.292-1.167a15.01,15.01,0,0,1,1.167-2.918A11.107,11.107,0,0,1,317.587,388.456Zm-5.252,11.671q0-1.751-.584-1.751A1.869,1.869,0,0,0,310,399.544a3.76,3.76,0,0,0,0,2.918l-2.334,2.918q-5.836,10.5-2.334,9.921a6.015,6.015,0,0,0,2.334-1.167q-.584-1.167-1.751,0a2.353,2.353,0,0,1,1.167-2.334l4.669-9.337Q311.168,400.711,312.335,400.127Zm-16.924,39.1a52.671,52.671,0,0,0-2.042,7.586q-1.459,6.419-2.626,14.006a86.723,86.723,0,0,0-1.167,12.839l-2.918,23.926q.584,3.5,1.167,0a22.642,22.642,0,0,0,1.167-2.918q0-.584.292-4.085a22.151,22.151,0,0,1,1.459-6.419q4.669-28.011,6.419-35.014,2.918-7.587,6.419-25.677,1.167,0,2.043-2.334t-2.043-2.334q-.584-.584,1.167-.875t.584-1.459H303a9.881,9.881,0,0,0-2.042,4.085,35.041,35.041,0,0,0-1.167,4.96,5.5,5.5,0,0,0,.292,3.21q-2.334,1.167-3.21,5.252A27.7,27.7,0,0,1,295.411,439.227Zm-1.167,65.36q.584.584,1.167-.584l.584-3.5q4.085-16.924,1.751-18.091l-2.334,6.419v4.085a42.475,42.475,0,0,1-.584,4.96A44.734,44.734,0,0,0,294.244,504.587Zm-.584,16.34a1.032,1.032,0,0,0,1.167-1.167q-1.751,0-1.751-.584a3.543,3.543,0,0,1,.875-1.751,6.575,6.575,0,0,0,1.167-2.334q.292-1.167-1.459-2.918-.584-.583-1.167.584Q291.326,518.009,293.661,520.927Zm-2.918-18.091q-1.167.583-1.167,0Q290.159,504.587,290.743,502.836Zm-1.751,4.085v.584q1.167,1.751,1.167-.584Q290.159,508.088,288.992,506.921ZM286.074,504q1.751,1.167.584,1.167.584,0,1.167-1.751l-.584-1.167Zm5.252,15.757q0-.584-1.167-1.167Zm-1.167-23.926q.584,1.167,1.167,0A.73.73,0,0,1,290.159,495.833Zm2.918,43.184-1.167-.584Zm1.167-8.17q-.584.584-.584-.584l-.584,1.167,1.751,2.334a2.378,2.378,0,0,0,.584-1.751,1.032,1.032,0,0,0-1.167-1.167Zm1.167,23.343v.584Q296.578,553.607,295.411,554.19Zm1.751-10.5V543.1q-.584-2.918-1.167-.584l1.167,2.334v-1.167Zm1.751,4.668v0Zm2.918,14.006H300.08q-.584.584.584,1.167A1.032,1.032,0,0,0,301.831,562.36Zm12.839,12.255h.584v-.584l-1.167-.583.584.583h-.584Zm12.255,1.167h0Zm7,1.167q-.584-.583-1.751,0Zm12.255-21.592,1.167.584,1.167-.584A2.48,2.48,0,0,0,346.182,555.357Zm1.751-2.334-.584-.583Zm22.759,8.754a7.015,7.015,0,0,0-4.669,4.669q-.583,1.167,1.751.583a14.044,14.044,0,0,1,3.5-3.5l4.669-5.252Q374.777,558.275,370.692,561.777Zm2.334-10.5-.584-2.334v.584l-.584,1.751q-.584,1.167-.292,1.459T373.026,551.272Zm1.751-10.5q-1.167,2.334-1.167.584a17.02,17.02,0,0,1,5.252-10.5q2.918,2.334,4.96,2.043a6.208,6.208,0,0,0,3.793-2.334,21.449,21.449,0,0,0,2.918-4.377,22.808,22.808,0,0,0,1.751-4.669l.584-.584a6.788,6.788,0,0,0,1.167-1.751l2.334-7q-.584-.583-1.751,2.334,0,5.252-8.754,14.006-4.669,4.085-4.085,1.751,0-2.334,4.085-8.754a14.731,14.731,0,0,1,1.751-3.5,17.388,17.388,0,0,1,1.751-2.334,4.463,4.463,0,0,0,.875-2.334,21.271,21.271,0,0,0,.292-3.5,3.663,3.663,0,0,0,.875-1.459,22.493,22.493,0,0,1,1.167-2.626l1.459-2.918q1.751-.584,2.043-1.167a1.881,1.881,0,0,0,0-1.459,1.929,1.929,0,0,1,.292-1.751q.584-.875,2.918-.875a6.015,6.015,0,0,0-1.167-2.334q-1.751-2.334,1.167-2.334-1.167-1.167,1.167-3.5l3.5.584a10,10,0,0,1-.875-7.295q.875-4.377,2.042-14.006a54.911,54.911,0,0,0,0-16.048q-.584-5.836-.875-12.547t-.292-9.921a23.943,23.943,0,0,0-1.167-7,12.247,12.247,0,0,0-4.085-6.128q-.584.584-.292,5.544a19.8,19.8,0,0,0,1.459,7.295q.584-2.918,1.167-2.918,1.751,0,.584,7.586-2.334-5.252-2.334-.584-.584,1.167.875,2.042t1.459,1.459a4.478,4.478,0,0,0-1.751.584,9.08,9.08,0,0,0-.292,6.128q.875,3.793.292,5.544a5.011,5.011,0,0,0-.875,2.626,43.476,43.476,0,0,1-.875,4.377,12.932,12.932,0,0,1-.584,4.085l-.584.584a30.809,30.809,0,0,1,0,8.462,71.794,71.794,0,0,1-1.459,7.878q-.875,3.5-2.626,9.629T389.95,497l-.584,1.459a36.714,36.714,0,0,0-1.167,3.5,13.14,13.14,0,0,0-.584,2.626,30.093,30.093,0,0,0-2.626,5.544q-1.459,3.793-3.5,8.17a59.723,59.723,0,0,1-4.377,7.878q.584.584-2.043,4.377t-2.626,4.96q-.584,1.167-.584-.583,0-4.085-2.918-.584-1.751,3.5-10.213,11.088T349.1,554.19q1.167.584,4.085-1.167,2.334-1.167,2.334-.583a9.551,9.551,0,0,1-.584,2.334,10.236,10.236,0,0,1,2.918-1.167q.584,0-1.167,2.334l1.167,1.167q1.167,0,2.334-1.751a29.737,29.737,0,0,0,2.334-4.377,8.582,8.582,0,0,1,2.918-3.793l3.5-.584q6.419-2.918,6.419-1.751.584.584,0,1.751t.584.584q4.085-2.334,7-9.337a1.869,1.869,0,0,1,1.167-1.751q-1.167-2.918-5.252,3.5Q375.944,545.437,374.777,540.768Zm25.677-126.635q.584-.584,0-1.751Q400.454,414.133,400.454,414.133Zm3.5-4.669.584-.584Zm-2.334,82.867q1.167,1.751,1.167-.584,0-.584-1.167-.584Q401.038,491.164,401.621,492.332Zm-16.34,32.1.584,1.167A1.681,1.681,0,0,0,385.281,524.428Zm2.918,16.924a.729.729,0,0,1,0-1.167,85.63,85.63,0,0,0,8.462-12.839,155.909,155.909,0,0,0,8.462-17.215q3.5-8.462,2.334-9.629-1.167,5.252-16.34,33.264l-5.252,10.5a17.38,17.38,0,0,0,1.751-2.334ZM408.041,497q.583,2.918,1.751,0a9.549,9.549,0,0,1,.584-2.334l1.167-8.754Zm2.334-41.434q-.584-1.167-1.167,0A.73.73,0,0,1,410.375,455.567Zm-.584-16.924q-1.167-1.167-.584-1.751-1.167-.584-1.167,2.918l.584,1.751A7.18,7.18,0,0,0,409.791,438.643Zm0-5.252-2.334,1.167a1.322,1.322,0,0,0,1.459.292A1.348,1.348,0,0,0,409.791,433.391Zm-3.5-29.179q.584,1.751,1.751-.584l-.584-1.167Zm-1.167-8.17q-1.751-1.167-1.167-1.751-.584-2.334-1.167-.584a8.958,8.958,0,0,0,1.167,3.5Zm-3.5,12.839q0-.584-1.167-.584l-1.167.584Q399.871,409.464,401.621,408.881Zm-4.669,1.751L398.7,415.3l.584-1.167L398.12,408.3q-.584-.584-.875,0A6.069,6.069,0,0,0,396.953,410.632Zm0-5.836-1.167-1.751q-.584,0,0,2.918Q396.953,405.379,396.953,404.8ZM391.7,375.617a1.681,1.681,0,0,1,1.167-.584q2.334-.584,0-.584Zm-22.176-12.255,2.334,2.918q.584,0-.584-1.751A6.789,6.789,0,0,1,369.525,363.362Zm25.094,91.621q4.669-51.938-18.091-79.366-4.669-2.334-10.5-8.754-.583,0-2.918-2.626a9.491,9.491,0,0,0-5.252-3.21,17.669,17.669,0,0,0-7,8.754,38.5,38.5,0,0,1-3.5,6.419q-2.918,4.669-5.836,8.754-1.167,2.334-7.295,14.006t-7.878,14.589q.584.584,0,.584a2.378,2.378,0,0,0-.584,1.751,296.914,296.914,0,0,0-22.176,64.776q-4.669,16.34-3.5,42.6t9.337,32.68a12.793,12.793,0,0,0,1.751,3.5,22.757,22.757,0,0,0,2.626,3.793,16.465,16.465,0,0,0,3.793,2.334q2.918,1.459,5.836-1.459.584-1.167,7.586-4.085,27.428-11.088,44.351-40.558A147.421,147.421,0,0,0,394.618,454.983ZM365.44,358.11q.584,0-.584-1.751a3.363,3.363,0,0,0-2.334-1.167l-.584.584Zm5.252-28.6.584.584q.584-.584.584-.875T370.692,329.515Zm2.918-2.334q-1.751-2.334,2.334-6.419,2.334-2.918,1.167-3.5-2.918.584-7,6.419a.516.516,0,0,1-.584.584q-.584,0-1.167,1.167-.584,0-3.21,2.334t-4.96,4.377q-2.334,2.042-1.751,2.626l2.334,4.085q3.5.584,4.085,0,0,1.167.584,1.167l2.334-6.419q0-1.751-1.167-1.167a1.869,1.869,0,0,1,1.167-1.751Q368.358,328.348,373.61,327.181Zm6.419-11.671a33.683,33.683,0,0,1,4.669-3.5q1.167-2.334-.584-1.751-2.918,0-4.085,3.5Zm1.751,5.252a.935.935,0,0,1,.584-.875,14.271,14.271,0,0,0,1.459-.875,19.081,19.081,0,0,1,2.042-1.167q2.334-4.085,1.751-4.669,0-1.167-5.836,5.836a8.138,8.138,0,0,0-1.167,2.043Q380.613,321.345,381.78,320.762Zm8.17-9.921q-1.167,1.751-.584,1.167l2.334-1.751q1.167-1.751,0-2.334v1.167h-.584A6.789,6.789,0,0,0,389.95,310.841Zm4.669-4.669-.584,1.167q.584.584,1.751-1.167a.729.729,0,0,0,0-1.167Zm12.839-13.422a4.479,4.479,0,0,0,1.751-.584,1.681,1.681,0,0,1,.584-1.167h-.584Q406.29,292.75,407.457,292.75Zm25.677-22.759q-.584-.584-1.751,0ZM609.956,62.823a2.378,2.378,0,0,0,1.751.584q1.167,2.334,5.252,5.252t8.754,5.836q4.669,2.918,9.337,6.127a23.454,23.454,0,0,1,7.295,7.878,14.942,14.942,0,0,1,2.043,9.337q-1.751,1.751-3.21.584a15.588,15.588,0,0,1-3.21-4.085l.584,1.167Q625.13,87.916,621.628,85q-8.754-3.5-23.051-5.836T579.611,80.33q-2.334-1.167-9.045,1.167a115.786,115.786,0,0,0-13.714,5.836l-16.34,8.17q-9.337,4.669-14.589,7,.584,1.167-.292,1.751a19.079,19.079,0,0,1-2.042,1.167,28.552,28.552,0,0,0-2.918,1.751,23.182,23.182,0,0,0-3.5,2.918L523,119.429a1.682,1.682,0,0,1,1.167.584q-5.252,1.751.584,3.5l-.292.875a8.451,8.451,0,0,0,0,3.21,9.85,9.85,0,0,0,2.042,4.669q5.836,9.337,9.921,39.683a24.967,24.967,0,0,1,1.459,7.586q.292,4.669.584,11.38t.875,10.8q1.751,2.334,0,6.419a245.568,245.568,0,0,1,2.918,26.261q-1.167.584-.292,2.918t1.751,5.544q.875,3.21-.875,7.878a123.309,123.309,0,0,1,1.167,24.51v.584h.584q1.167-.584,0,1.751-.584,2.334-.292,2.626t2.042-1.459q7.587-6.419,33.264-23.343.584-.584,3.5.584,1.751.584,1.167-1.167,0,.584,11.088-5.252,31.513-15.756,31.513-11.088,10.5-.584,3.5,4.669a20.274,20.274,0,0,1-6.419,4.085q0,.584,7.586-2.334l1.751.584q-2.334,1.167-6.127,3.21t-6.711,3.5a22.558,22.558,0,0,1-6.419,2.043q1.751,1.167-1.751,2.334-7.586,2.918-9.921,6.419-37.349,23.926-47.853,36.765,0-.584-1.751,1.167v.584h.584q-8.17,11.088-9.045,27.136t-3.21,55.731q-2.334,39.683-12.839,89.286a24.124,24.124,0,0,1-.292,3.21,6.685,6.685,0,0,1-2.043,3.793q1.751,1.751-2.918,18.091-1.167.584-1.751,3.5t1.167,3.5a100.026,100.026,0,0,0-4.085,13.13Q516,527.93,513.083,536.1a6.336,6.336,0,0,0-1.167,2.334l-1.167,3.793q-1.167,3.793-2.626,8.462t-3.21,6.419q-1.751,0-1.751.584a8.958,8.958,0,0,0,1.167,3.5q0,1.167-1.167,0t-1.751,0q2.918,2.918-15.756,35.6l-.584.584a10.465,10.465,0,0,1-1.751,5.252q-1.751,2.918-3.5,5.544t-4.085,6.419q-2.334,3.793-3.5,5.544a103.085,103.085,0,0,0-6.419,8.754q-5.252,7.586-9.337,9.921a1.869,1.869,0,0,0-1.167,1.751v.584a21.358,21.358,0,0,0-4.085,3.5,21.363,21.363,0,0,1-4.085,3.5,43.828,43.828,0,0,1-4.669,4.085l-2.918,2.334-.584.584h-.584l.584-.584q0-.584-1.459.875t-3.21,2.918q-1.751,1.459-4.669-1.459a.516.516,0,0,0,.584.584,2.918,2.918,0,0,1,0,3.5,18.482,18.482,0,0,0-5.252.875,20.148,20.148,0,0,0-4.377,1.751,16.136,16.136,0,0,1-3.21,1.459,6.335,6.335,0,0,0-2.334,1.167h-4.669q-.584.584,0,1.751-2.334-2.918-7.586,0-1.751-1.751-9.629-2.042t-10.212-3.21a51.733,51.733,0,0,0-7.295-2.043,50.047,50.047,0,0,1-10.8-3.793q.584,0,4.085.584,2.334,1.751,2.334-1.167,3.5,2.334,3.5,1.751t-3.5-3.5q-.584-3.5-3.5-.584t-4.085,1.167a16.173,16.173,0,0,0,1.459-3.793,5.964,5.964,0,0,0,0-2.626,18.61,18.61,0,0,0-1.751-3.793q-1.459-2.626-2.626-4.377-1.167-2.334-1.751,0,0,5.252,3.5,6.419l.584,2.334q-4.085-1.167-5.836-9.921a9.341,9.341,0,0,1,0-4.669q1.167-.583,1.167-1.167l-3.5,2.918a20.689,20.689,0,0,0-1.459-4.085q-1.459-3.5-2.626-6.128a13.5,13.5,0,0,1-1.167-5.544,6.309,6.309,0,0,1,1.751-4.669H345.6l1.751,7-1.167.583v-.292a14.557,14.557,0,0,0-.292-1.751,13.527,13.527,0,0,1-.292-2.626l-.584-1.167v-1.751a17.547,17.547,0,0,1-.584-2.918l-.584-.583,1.167.583q3.5,1.167,3.793.584t-.292-5.836q0-.584-2.043,0t-2.626-.292q-.584-.875.584-5.544.584,2.918,2.334,2.918,1.167.584,1.751-1.167a1.681,1.681,0,0,1,.584-1.167q-.584,0-.584-2.918v-7.586q0-4.669.292-9.629t.584-9.045a26.5,26.5,0,0,1,.875-5.836q1.167-13.422-.584-.584-3.5,23.926-4.669,24.51-.584.584-.584-5.836a37.011,37.011,0,0,0,1.167-5.544q.584-3.793,1.459-9.337a62.885,62.885,0,0,0,.875-9.629q-.584-2.918,3.21-14.589t-.292-14.589q1.751,1.167,2.626,0a14.551,14.551,0,0,0,1.751-4.669,11.1,11.1,0,0,1,2.626-5.252q1.167-1.751.584-1.751a9.553,9.553,0,0,1-2.334-.584q0-.584,1.167-.875a3.7,3.7,0,0,0,1.751-.875l1.459-1.459a2.8,2.8,0,0,0,.875-2.042V511.59l.584-1.167q1.751-2.334.584-2.334a17.546,17.546,0,0,0-2.918.584q1.167-2.918,3.793-8.17a41.281,41.281,0,0,1,3.21-5.836l-.584-1.751q1.751,0,2.043-2.334t1.459-2.918l1.751,1.751v-2.334q-1.167-2.918,2.918-9.337.584,0,.584-.292V475.7a5.791,5.791,0,0,1,.584-2.626,6.333,6.333,0,0,0,2.334-1.167q1.167-4.669,12.255-21.592,5.836-11.088,22.467-34.723t24.8-30.054a1.153,1.153,0,0,0,1.751-.584,58.037,58.037,0,0,1,7-11.671,59.987,59.987,0,0,1,8.17-8.754q4.085-3.5,11.963-11.38t16.048-16.632a54.962,54.962,0,0,1,12.255-11.963,58.665,58.665,0,0,0,10.5-9.045q3.5-4.085,3.5-12.255v-.584q2.334-18.091-.584-51.354,2.334-3.5.584-11.38t-1.167-10.213q1.167-2.334.292-12.547t-.292-13.714a5.483,5.483,0,0,0-1.459-3.5q-1.459-1.751.292-3.5a31.922,31.922,0,0,1-1.167-7q.584-3.5-.875-15.756t-2.626-22.467a63.224,63.224,0,0,1,0-17.215q-3.5-9.921-2.918-12.839l-8.462,5.836q-8.462,5.836-14.589,9.629t-16.632,9.045a115.919,115.919,0,0,1-18.383,7.586,50.957,50.957,0,0,1-16.34,2.042q-8.462-.292-13.13-4.96l-1.167-.584q-1.167-.584-3.21-1.459a12.116,12.116,0,0,1-3.793-2.626q-2.334-2.334-4.669-8.754t-1.167-9.337l.292-3.793A23.541,23.541,0,0,1,399,116.511a6.256,6.256,0,0,1,4.96-4.085H409.5a25.874,25.874,0,0,1,4.96.292q1.167.292,3.21.875T420,115.636a10.482,10.482,0,0,1-.292,4.085,25.782,25.782,0,0,1-2.918,6.711q.584,4.085,11.088-2.334,4.085-2.334,5.836-1.751a28.543,28.543,0,0,0,2.918-1.751l4.377-2.918,4.377-2.918q1.167-.584,7-4.377t8.17-5.544a5.076,5.076,0,0,0,2.042-.875q1.459-.875,3.5-2.334T469.9,99q1.751-.584,6.419-4.085a55.612,55.612,0,0,1,8.17-5.252v-.584a3.959,3.959,0,0,1,2.918-1.167,1.869,1.869,0,0,0,1.751-1.167l7.586-5.252.584.584q0-.584,6.419-4.085,15.757-9.921,37.932-16.924t35.6-5.252l1.751-.292,3.5-.584a10.129,10.129,0,0,1,4.085.292Q606.455,61.072,609.956,62.823Zm3.5,11.088v0ZM592.449,61.072a1.906,1.906,0,0,0-2.334.584l1.167.584Zm-2.334,5.252q0-1.167-1.167,0A.729.729,0,0,1,590.115,66.324Zm-5.836-7h-2.334q-.584,0,.584,1.167Zm-5.836,5.836q.584,1.167,2.918,1.167l2.334-.584ZM560.353,79.163q.584-.584,2.334,0,1.167.584,1.167,0a2.378,2.378,0,0,0,.584-1.751h3.5q0-.584-1.751-1.167L550.432,81.5q-2.334,1.167,2.334.584a4.479,4.479,0,0,0,1.751-.584q1.167-.583,2.626-1.167T560.353,79.163ZM517.169,81.5q4.669-4.669,22.759-10.5a1.906,1.906,0,0,1,2.334-.584l3.5-1.751q5.252-2.334,5.252-3.5-.584.584-2.918.292a5.823,5.823,0,0,0-4.085.875,69.127,69.127,0,0,0-11.963,1.751,48.9,48.9,0,0,0-7.586,2.626q-3.21,1.459-10.213,5.544-.584-.584-1.751,0a17.846,17.846,0,0,0-3.21,2.334A6.051,6.051,0,0,1,505.5,80.33q-2.334,0-2.334,1.167-4.669,3.5-5.836,2.918-1.167.584-.584,1.167t.292.584h-.292q-.584-.583-2.626.292a23.53,23.53,0,0,0-3.793,2.043q-1.751,1.167-1.167,1.751a34.822,34.822,0,0,1-4.96,2.918l-8.754,4.669a57.459,57.459,0,0,0-8.462,5.544q-4.085,3.21-4.669,5.544-1.167-1.751-6.419,1.459a108.52,108.52,0,0,0-11.088,7.878q-5.836,4.669-7.586,5.252-2.334-1.167-2.918,2.334l-5.836,1.751v.584a1.153,1.153,0,0,1-1.751.584,7.2,7.2,0,0,0-4.085,1.751,5.38,5.38,0,0,1-4.669,1.167q1.167,7,9.921,2.918a49.749,49.749,0,0,1,10.5-2.918L454.143,120.6q6.419-3.5,6.419-1.751Q477.486,103.089,517.169,81.5Zm.583,114.964.584-.584Zm.584,5.836q-.584-.584-.584,0v4.085Zm1.167,22.759q.584-.584,0-5.836l-1.167-2.918Zm1.167,47.853,1.167-.584Zm1.167,2.918h-.584v1.167Zm0,4.669-.584-.584v1.167Zm0,10.5-.584-4.085.584,12.255Zm0,28.011h-.584v.584Zm-1.167,22.176v3.5A5.4,5.4,0,0,0,520.67,341.187Zm-.584-2.918.584-.584V337.1Zm.584-84.034v3.5a21.159,21.159,0,0,0,0-7v3.5Zm.584-8.17a1.032,1.032,0,0,0-1.167-1.167q-.583,0-.584,1.167Q521.254,248.4,521.254,246.064Zm-4.085-56.023h0a2.377,2.377,0,0,1-.584,1.751l.584,1.167Zm-1.751-18.674V173.7A2.48,2.48,0,0,0,515.418,171.367Zm-5.252,297.622q-2.334,3.5-.584,3.5l1.167-1.167Q511.333,469.572,510.166,468.989Zm-1.751,10.5.584-.584.584-1.167q0-2.334-.584-2.334t-.584,1.459Zm-48.436-95.706q-1.167-.583,2.918-4.669t10.8-10.5Q480.4,362.2,487.7,355.192t13.13-13.714q5.836-6.711,7-10.212v-.584a9.6,9.6,0,0,0,.584-2.918,122.44,122.44,0,0,0-11.963,11.088,106.515,106.515,0,0,1-11.38,10.5q0,.584-2.918,3.5t-1.751,2.918a16.28,16.28,0,0,0-5.836,3.5q-1.751,1.751-4.96,5.544t-5.836,6.711a17.25,17.25,0,0,1-3.793,3.5q.584,0,.292-.292t-.875.292q.584.584-.583,1.459a17.06,17.06,0,0,0-1.751,1.459.729.729,0,0,0,0,1.167,1.682,1.682,0,0,0,.584,1.167h-.584a5.179,5.179,0,0,0-2.334.584q4.085,3.5,3.5,3.5-7.586-.584-9.921,3.5,2.918-3.5,4.669-.292T459.979,383.787Zm32.1,97.457q.584,0,.584-1.167v-2.334a12.518,12.518,0,0,1,.584-3.21,19.252,19.252,0,0,1,1.167-3.21q13.422-78.782,13.422-126.635-7.587,7.587-25.094,27.136T459.979,398.96q-30.346,41.434-37.932,54.272-5.252,7.587-14.589,25.094-23.926,40.85-31.513,74.7-1.751,4.085-7.586,33.847a129.065,129.065,0,0,0,.875,33.264q2.626,18.091,8.462,29.762l8.754,7q7,4.085,10.5,2.334,0-.584.292-.583a14.575,14.575,0,0,0,1.751-.292,10.418,10.418,0,0,0,2.626-.875l.584.584q0,1.167,1.751.875a21.542,21.542,0,0,0,5.836-2.626q-7.586-.584,0-2.334,2.918-1.751,4.669-2.918h1.167v-.583a17.756,17.756,0,0,0,2.626-2.043A28.934,28.934,0,0,0,420.3,646.1a39.794,39.794,0,0,1,2.918-3.21q.584,2.334,4.085-1.751,2.334-1.751,3.5-1.167,0-2.918-2.334-2.918,7-1.167,9.337-8.754-.584-1.167-1.167,0l2.334-4.669a4.479,4.479,0,0,1,.584-1.751l1.167.584q-1.167,1.751,0,2.334a6.788,6.788,0,0,0,1.167-1.751,7.321,7.321,0,0,1,2.042-2.334,5.886,5.886,0,0,1,3.793-1.167q.584-1.751,0-1.751a2.309,2.309,0,0,1-1.459-.292q-.292-.292.292-1.459a27.976,27.976,0,0,0,2.334-3.21q1.751-2.626,2.626-3.793t2.626,0v-1.167a9.591,9.591,0,0,1,.292-2.334q.292-1.167.584-2.626L455.6,600a16.637,16.637,0,0,1,.875-2.918,11.42,11.42,0,0,1,1.459-2.626,2.524,2.524,0,0,1,2.043-1.167.516.516,0,0,1,.584-.583,9.552,9.552,0,0,0,2.334-.584q-1.751.584,1.167-7,1.167-2.918,4.085-9.337l2.334-7.586a13.506,13.506,0,0,0-1.751,2.918q-7,15.173-7.295,14.881t6.711-18.383l8.17-21.009q.584-.584,2.043-6.128t2.626-7.295l-1.167-1.167v-1.167q3.5.584,2.043-3.21t1.459-3.793l.292-1.459q.292-1.459.584-2.626t-.875-1.167a.729.729,0,0,1-1.167,0l1.751-5.252v.584q1.751,4.085,3.5-5.252A25.1,25.1,0,0,1,487.99,504a11.181,11.181,0,0,1,.875-3.5,4.284,4.284,0,0,0-.292-4.085Q490.324,497,492.075,481.244Zm12.839,69.445v4.669a17.379,17.379,0,0,0,1.751-2.334Q507.248,550.105,504.914,550.689Zm-.584-46.1q-.584,0,0-1.751,1.167-2.918,0-2.918h-1.167Q503.163,504.587,504.33,504.587Zm-2.918,5.252a2.378,2.378,0,0,0,1.751.584l-.584-.584v-1.167q.584-2.334.292-1.751Zm-2.334-47.269,1.167.584Zm0,55.439Q502,513.34,502,512.757q-1.167-1.167-1.751,1.751A18.087,18.087,0,0,1,499.078,518.009Zm-1.167-44.351v-2.918l-.584,6.419A29.088,29.088,0,0,1,497.911,473.657Zm-1.751,9.337-1.167,1.167q-.584,1.167.584.292T496.16,482.995Zm-.584,48.436h1.751l-.584-1.167Q496.16,530.264,495.576,531.431Zm-1.167-43.768-.584,1.167Zm0,49.6-1.167,5.836.292-.875q.292-.875.584-2.042A12.276,12.276,0,0,0,494.409,537.267Zm-2.334-38.516.584,1.167Zm-2.334,8.17h0v0Zm0,46.1-.584-.583Zm-.584-39.1v-.584l-1.167.584Q489.157,513.34,489.157,513.924Zm-2.334,48.436q0-1.167-1.167-.584ZM485.656,525.6h-.584a6.791,6.791,0,0,0-1.167,1.751h1.167Q485.656,527.346,485.656,525.6ZM483.9,565.862a6.5,6.5,0,0,0-.584,2.918q0,1.167,1.167-1.167a5.18,5.18,0,0,0,.584-2.334Zm-2.334-22.176q-.584,0-.292-2.918t0-2.626a17.254,17.254,0,0,0-1.459,2.626A3.43,3.43,0,0,0,481.571,543.686Zm-.584,31.513q-.584-2.334-1.167,1.167Q479.82,577.533,480.987,575.2Zm-4.669,8.17q.584-.584-.584,2.334l.584.584Q477.486,585.12,476.318,583.369Zm-.584-26.844q4.085-10.5,4.085-11.671l-7.586,19.258h.584A54,54,0,0,1,475.735,556.525Zm-6.419,42.6q.584,0,2.334-3.5l1.167-3.5A28.973,28.973,0,0,0,469.316,599.125Zm-7,12.255h0Zm-1.751-7.586a.729.729,0,0,1-1.167,0,1.906,1.906,0,0,0-.583,2.334q0,1.751,1.751-.584a5.18,5.18,0,0,1,.584-2.334Zm-4.085-1.751a5.18,5.18,0,0,0-.584,2.334l1.751-2.334v-1.167q.584-1.751.292-1.459A17.245,17.245,0,0,0,456.477,602.043Zm-.584,8.754h1.167q.584-1.751-.584-2.334h0A5.18,5.18,0,0,1,455.894,610.8Zm-1.167,2.334-1.751,2.334-.584,1.167Q454.726,614.3,454.726,613.131Zm-2.334-1.167q1.167-1.751-1.167,1.167Q452.392,612.547,452.392,611.964Zm-4.668,12.255-.584-.584Zm-8.17,2.334q.584-1.167,0-1.167a1.682,1.682,0,0,0-1.167.584Q437.8,627.72,439.554,626.553Zm-1.751,6.419v0Zm-.584,2.918v1.167l1.167-1.167a.73.73,0,0,0,0-1.167Zm-7,9.337q-.584-.584.875-2.042t2.626-.875l-1.167-1.167A15.181,15.181,0,0,0,430.216,645.227ZM410.375,660.4q-.584-.584-1.751,0Zm-40.85-29.762-.584-2.918q-1.167-5.836-1.751-5.836v1.751q-.584,7,2.334,9.921Zm-2.918-83.451-1.751,3.5-.584,4.085a2.378,2.378,0,0,0,.584-1.751l.584-.583a1.681,1.681,0,0,0,.584-1.167q-.584-.584.292-2.042T366.607,547.187ZM366.023,504q.584-1.751,0-1.751L363.689,504Q363.689,504.587,366.023,504Zm-2.918,53.689q-.584-1.751-.584.584Zm0,4.085h0Zm-.584,3.5h-1.167Q361.355,564.694,362.522,565.278Zm-.584,5.252q-.584-1.167-1.167,0A.729.729,0,0,1,361.938,570.53Zm-1.167,5.836a1.153,1.153,0,0,1,.584-1.751l-.584.584Zm.584,3.5q0-.584-1.751-.584t0,.584Q361.355,581.035,361.355,579.867Zm-2.918,20.425h-.584l1.167,1.167Q359.6,600.876,358.437,600.292Zm0-7.586q-.584,1.751.292.583t.292-1.167Zm0-4.085q-.584,1.751.292.584t.292-1.751Zm.584-44.351q.584,0-.584-1.167h-.584Q357.853,543.686,359.021,544.269Zm.584-5.252-.584,1.751h1.167A2.378,2.378,0,0,0,359.6,539.017Zm.584-13.422q.584-.584,1.167-3.5,1.167-5.252.584-5.252l-4.085,15.173A22.587,22.587,0,0,0,360.188,525.6Zm-2.334,23.926a8.874,8.874,0,0,0-2.334,4.669v3.5Zm-2.918,84.618a1.189,1.189,0,0,0,.875-.292,5.889,5.889,0,0,0,.292-2.626,2.589,2.589,0,0,1,.292-1.167,3.39,3.39,0,0,1,.584-.875q.292-.292-.292-2.626a30.019,30.019,0,0,0-2.334-5.836q-.584-1.167-.584-.584a9.551,9.551,0,0,0,.584,2.334l-1.167.584q-1.751-1.751-1.167-.584A36.738,36.738,0,0,0,354.936,634.14ZM352.6,618.383q1.167.584,1.167-2.334,0-2.334-1.751,1.167l-1.167,1.751Q351.434,620.134,352.6,618.383Zm0-5.252.584-.583Zm-1.751-18.091q.584,4.085,1.751,0Q351.434,590.955,350.851,595.04Zm.584-5.836q1.167-.583,1.167-3.5,0-1.167-.584-1.167l-1.167,2.918Zm-.584,15.173,1.751,4.669V607.3q1.167-2.334-.584-5.836Zm2.918-40.266a5.01,5.01,0,0,0-.875,2.626,31,31,0,0,0-.292,4.377,27.049,27.049,0,0,1-.584,5.252,27.046,27.046,0,0,0-.584,5.252l.584.584.584-.584a5.26,5.26,0,0,0,0-3.5l1.167-7Q354.936,564.111,353.768,564.111Zm1.167-19.841,2.334-10.5q-4.085,7.587-5.836,19.258v2.334Q352.6,554.19,354.936,544.269Zm.584-14.006q.584-1.167,0-1.751,0-.584-.584,0A2.378,2.378,0,0,0,355.519,530.264ZM366.607,500.5a2.48,2.48,0,0,0-2.334,0l1.167.584Zm1.751,3.5v0Zm-2.334,41.434a3.817,3.817,0,0,1,1.751-1.751h-1.751Q365.44,544.269,366.023,545.437Zm4.96-12.839a3.6,3.6,0,0,0,.875-2.043q0-.875-.875-.292a2.271,2.271,0,0,0-.875,2.042Q370.108,533.765,370.984,532.6Zm1.459-7.587a7.324,7.324,0,0,0,1.751-2.918Zm2.918-7.586v2.334l.584-1.167A1.681,1.681,0,0,0,375.361,517.425Zm0-35.014q1.751-3.5,1.167-4.085l-2.918,6.419A17.384,17.384,0,0,0,375.361,482.411Zm1.167,32.68a28.544,28.544,0,0,1,1.751-2.918l-1.167,1.167Q375.944,515.091,376.528,515.091Zm2.334-40.266v0Zm1.751-3.5v0Zm1.167,33.264-.584-1.167q-.584,0-.584,1.167Q380.613,505.17,381.78,504.587Zm4.669-43.768h0Zm2.918-4.669-.584-1.167Zm1.751,26.844,1.167-.584Zm2.334-35.014,2.918-3.5A23.187,23.187,0,0,0,393.451,447.98Zm3.5,23.926h0Zm8.17-13.422a17.389,17.389,0,0,0,1.751-2.334l.584-1.167-2.334,2.334Zm12.255-22.176.875.875q.875.875,2.042-1.459Zm6.419-5.836q.584-1.167.292-1.167t-2.042,1.751q-.584,1.751-.292,1.751T423.8,430.473Zm2.334-4.669q-.584-1.167,1.459-2.626t1.459-2.626q0-1.167-3.5,2.918A3.38,3.38,0,0,0,426.131,425.8Zm6.419-16.924q1.167-1.167-.584,0Zm3.5-19.841q1.167-1.751-.584-.584Zm2.334,14.006.584-1.751h.584q-.584-1.167-1.751,0l-1.167,2.334a5.12,5.12,0,0,0,1.459.584Q438.386,404.212,438.386,403.045Zm1.751,4.085q4.085-3.5,3.5-5.252-.584-.584-3.5,3.5Q439.554,407.13,440.137,407.13Zm11.088-15.173-.584.875a14.149,14.149,0,0,1-1.751,2.042,19.121,19.121,0,0,0-2.334,2.918q-.584-1.167-1.751,1.167-.584,1.167,0,1.167.584.584,1.751,0l5.836-9.337Zm-6.419,2.334h.584l.584-1.167q.584-2.334.292-2.334T444.806,394.292Zm61.859-224.675-1.167,1.167Zm-7-45.519v1.751Q500.245,125.265,499.661,124.1Zm-43.768-3.5-1.167,1.167,2.918-1.751Zm-37.932,15.173-.584-1.167-1.167.584Q417.961,136.353,417.961,135.769ZM554.517,62.823l.875-.584a11.438,11.438,0,0,1,2.626-1.167h-1.751Zm8.754-1.751q0-1.751-2.918,0l.584.584Q563.271,61.656,563.271,61.072Zm-39.683,114.38v0Zm.584,4.085v-.584a2.378,2.378,0,0,1-.584,1.751Zm29.762,109.128q3.5,0,8.754-5.836,2.918-2.918.584-2.918a51.552,51.552,0,0,1-4.377,3.21q-3.793,2.626-5.544,4.085t-4.96,4.085q-3.21,2.626-3.21,3.793V298h0q3.5-.584,4.377-2.918t6.711-3.5q0-.584-1.167-.584Q553.934,291.583,553.934,288.665Zm-4.085-7q.584-.584.292-.875t-1.459.875v1.167Q548.681,283.413,549.849,281.662Zm18.091-2.918h0a4.481,4.481,0,0,0,.584-1.751h0A4.477,4.477,0,0,0,567.939,278.744Zm1.751,1.751q.584-1.167-.583,0Zm.584-5.836h.583l2.918-.584h1.167Q573.191,272.325,570.274,274.659Zm.583-8.754q0,.584.875-.584t-.292-1.751Zm.584,11.671q1.751,1.167,4.669-1.751h0Q572.024,276.994,571.441,277.577Zm5.836-2.918a13.44,13.44,0,0,0,3.5-1.751Zm3.5-7a.73.73,0,0,0,0-1.167l-1.167,1.167v.584q-.584,1.167-.292.875Zm-1.167-9.921q1.167,1.167,1.751,0Q579.611,257.152,579.611,257.736Zm2.334,12.255a.516.516,0,0,0-.584.584l1.751.584Zm9.337-4.669q2.918-1.751,2.918-2.334ZM622.5,248.4q-.292-.584-1.459.584t.292.584Q622.8,248.982,622.5,248.4Z" transform="translate(241.654 267.766)" fill="#fff"/>
    <path id="Path_8" data-name="Path 8" d="M0,0H19l.631,9.068V18H-1.252l1.8-9.551Z" transform="translate(642 367)" fill="#fff"/>
  </g>
</svg>
